<svg xmlns="http://www.w3.org/2000/svg" width="756.896" height="381.878" viewBox="0 0 756.896 381.878">
  <g id="bouttons" transform="translate(-429.422 -472.162)">
    <path id="Path_3014" data-name="Path 3014" d="M1137.926,666.268" fill="none" stroke="#fff" stroke-linecap="round" stroke-linejoin="round" stroke-width="2.23"/>
    <g id="Group_487" data-name="Group 487">
      <path id="Path_3015" data-name="Path 3015" d="M1120.672,705.14a32.4,32.4,0,0,1,63.146-1.431" fill="none" stroke="#fff" stroke-linecap="round" stroke-linejoin="round" stroke-width="2.23"/>
      <path id="Path_3016" data-name="Path 3016" d="M1184.288,717.453a32.4,32.4,0,0,1-63.762-.015" fill="none" stroke="#fff" stroke-linecap="round" stroke-linejoin="round" stroke-width="2.23"/>
      <path id="Path_3017" data-name="Path 3017" d="M1139.185,691.6a24.038,24.038,0,0,1,33.874,32.373" fill="none" stroke="#fff" stroke-linecap="round" stroke-linejoin="round" stroke-width="2.23"/>
      <path id="Path_3018" data-name="Path 3018" d="M1166.1,731.426a24.037,24.037,0,0,1-33.44-33.454" fill="none" stroke="#fff" stroke-linecap="round" stroke-linejoin="round" stroke-width="2.23"/>
      <line id="Line_312" data-name="Line 312" x1="0.096" y2="0.12" transform="translate(1135.666 694.039)" fill="none" stroke="#fff" stroke-linecap="round" stroke-linejoin="round" stroke-width="2.23"/>
      <line id="Line_313" data-name="Line 313" x1="0.096" y2="0.12" transform="translate(1184.655 711.017)" fill="none" stroke="#fff" stroke-linecap="round" stroke-linejoin="round" stroke-width="2.23"/>
    </g>
    <g id="Group_488" data-name="Group 488">
      <path id="Path_3019" data-name="Path 3019" d="M1082.589,587.945a32.4,32.4,0,0,1,63.145-1.431" fill="none" stroke="#fff" stroke-linecap="round" stroke-linejoin="round" stroke-width="2.23"/>
      <path id="Path_3020" data-name="Path 3020" d="M1146.2,600.257a32.4,32.4,0,0,1-63.762-.014" fill="none" stroke="#fff" stroke-linecap="round" stroke-linejoin="round" stroke-width="2.23"/>
      <path id="Path_3021" data-name="Path 3021" d="M1101.1,574.4a24.039,24.039,0,0,1,33.875,32.373" fill="none" stroke="#fff" stroke-linecap="round" stroke-linejoin="round" stroke-width="2.23"/>
      <path id="Path_3022" data-name="Path 3022" d="M1128.013,614.231a24.037,24.037,0,0,1-33.439-33.455" fill="none" stroke="#fff" stroke-linecap="round" stroke-linejoin="round" stroke-width="2.23"/>
      <line id="Line_314" data-name="Line 314" x1="0.096" y2="0.12" transform="translate(1097.583 576.844)" fill="none" stroke="#fff" stroke-linecap="round" stroke-linejoin="round" stroke-width="2.23"/>
      <line id="Line_315" data-name="Line 315" x1="0.096" y2="0.12" transform="translate(1146.572 593.821)" fill="none" stroke="#fff" stroke-linecap="round" stroke-linejoin="round" stroke-width="2.23"/>
    </g>
    <g id="Group_489" data-name="Group 489">
      <path id="Path_3023" data-name="Path 3023" d="M605.678,814a32.4,32.4,0,0,1,63.145-1.431" fill="none" stroke="#fff" stroke-linecap="round" stroke-linejoin="round" stroke-width="2.23"/>
      <path id="Path_3024" data-name="Path 3024" d="M669.293,826.315a32.4,32.4,0,0,1-63.761-.015" fill="none" stroke="#fff" stroke-linecap="round" stroke-linejoin="round" stroke-width="2.23"/>
      <path id="Path_3025" data-name="Path 3025" d="M624.19,800.459a24.039,24.039,0,0,1,33.875,32.373" fill="none" stroke="#fff" stroke-linecap="round" stroke-linejoin="round" stroke-width="2.23"/>
      <path id="Path_3026" data-name="Path 3026" d="M651.1,840.288a24.037,24.037,0,0,1-33.44-33.454" fill="none" stroke="#fff" stroke-linecap="round" stroke-linejoin="round" stroke-width="2.23"/>
      <line id="Line_316" data-name="Line 316" x1="0.096" y2="0.12" transform="translate(620.671 802.901)" fill="none" stroke="#fff" stroke-linecap="round" stroke-linejoin="round" stroke-width="2.23"/>
      <line id="Line_317" data-name="Line 317" x1="0.096" y2="0.12" transform="translate(669.661 819.879)" fill="none" stroke="#fff" stroke-linecap="round" stroke-linejoin="round" stroke-width="2.23"/>
    </g>
    <g id="Group_490" data-name="Group 490">
      <path id="Path_3027" data-name="Path 3027" d="M990.149,499.143a32.4,32.4,0,0,1,63.145-1.431" fill="none" stroke="#fff" stroke-linecap="round" stroke-linejoin="round" stroke-width="2.23"/>
      <path id="Path_3028" data-name="Path 3028" d="M1053.765,511.455A32.4,32.4,0,0,1,990,511.441" fill="none" stroke="#fff" stroke-linecap="round" stroke-linejoin="round" stroke-width="2.23"/>
      <path id="Path_3029" data-name="Path 3029" d="M1008.661,485.6a24.039,24.039,0,0,1,33.875,32.373" fill="none" stroke="#fff" stroke-linecap="round" stroke-linejoin="round" stroke-width="2.23"/>
      <path id="Path_3030" data-name="Path 3030" d="M1035.573,525.429a24.037,24.037,0,0,1-33.439-33.455" fill="none" stroke="#fff" stroke-linecap="round" stroke-linejoin="round" stroke-width="2.23"/>
      <line id="Line_318" data-name="Line 318" x1="0.096" y2="0.12" transform="translate(1005.142 488.042)" fill="none" stroke="#fff" stroke-linecap="round" stroke-linejoin="round" stroke-width="2.23"/>
      <line id="Line_319" data-name="Line 319" x1="0.096" y2="0.12" transform="translate(1054.132 505.019)" fill="none" stroke="#fff" stroke-linecap="round" stroke-linejoin="round" stroke-width="2.23"/>
    </g>
    <g id="Group_491" data-name="Group 491">
      <path id="Path_3031" data-name="Path 3031" d="M897.7,613.722a32.4,32.4,0,0,1,63.146-1.431" fill="none" stroke="#fff" stroke-linecap="round" stroke-linejoin="round" stroke-width="2.23"/>
      <path id="Path_3032" data-name="Path 3032" d="M961.32,626.034a32.4,32.4,0,0,1-63.762-.014" fill="none" stroke="#fff" stroke-linecap="round" stroke-linejoin="round" stroke-width="2.23"/>
      <path id="Path_3033" data-name="Path 3033" d="M916.217,600.179a24.038,24.038,0,0,1,33.875,32.373" fill="none" stroke="#fff" stroke-linecap="round" stroke-linejoin="round" stroke-width="2.23"/>
      <path id="Path_3034" data-name="Path 3034" d="M943.129,640.008a24.037,24.037,0,0,1-33.44-33.454" fill="none" stroke="#fff" stroke-linecap="round" stroke-linejoin="round" stroke-width="2.23"/>
      <line id="Line_320" data-name="Line 320" x1="0.096" y2="0.12" transform="translate(912.698 602.621)" fill="none" stroke="#fff" stroke-linecap="round" stroke-linejoin="round" stroke-width="2.23"/>
      <line id="Line_321" data-name="Line 321" x1="0.096" y2="0.12" transform="translate(961.687 619.598)" fill="none" stroke="#fff" stroke-linecap="round" stroke-linejoin="round" stroke-width="2.23"/>
    </g>
    <g id="Group_492" data-name="Group 492">
      <path id="Path_3035" data-name="Path 3035" d="M430.863,576.716a32.4,32.4,0,0,1,63.146-1.431" fill="none" stroke="#fff" stroke-linecap="round" stroke-linejoin="round" stroke-width="2.23"/>
      <path id="Path_3036" data-name="Path 3036" d="M494.479,589.029a32.4,32.4,0,0,1-63.762-.014" fill="none" stroke="#fff" stroke-linecap="round" stroke-linejoin="round" stroke-width="2.23"/>
      <path id="Path_3037" data-name="Path 3037" d="M449.376,563.173a24.038,24.038,0,0,1,33.874,32.373" fill="none" stroke="#fff" stroke-linecap="round" stroke-linejoin="round" stroke-width="2.23"/>
      <path id="Path_3038" data-name="Path 3038" d="M476.288,603a24.037,24.037,0,0,1-33.44-33.455" fill="none" stroke="#fff" stroke-linecap="round" stroke-linejoin="round" stroke-width="2.23"/>
      <line id="Line_322" data-name="Line 322" x1="0.096" y2="0.12" transform="translate(445.857 565.615)" fill="none" stroke="#fff" stroke-linecap="round" stroke-linejoin="round" stroke-width="2.23"/>
      <line id="Line_323" data-name="Line 323" x1="0.096" y2="0.12" transform="translate(494.846 582.593)" fill="none" stroke="#fff" stroke-linecap="round" stroke-linejoin="round" stroke-width="2.23"/>
    </g>
    <g id="Group_493" data-name="Group 493">
      <path id="Path_3039" data-name="Path 3039" d="M770.693,678.012a32.4,32.4,0,0,1,63.145-1.432" fill="none" stroke="#fff" stroke-linecap="round" stroke-linejoin="round" stroke-width="2.23"/>
      <path id="Path_3040" data-name="Path 3040" d="M834.309,690.324a32.4,32.4,0,0,1-63.762-.014" fill="none" stroke="#fff" stroke-linecap="round" stroke-linejoin="round" stroke-width="2.23"/>
      <path id="Path_3041" data-name="Path 3041" d="M789.206,664.469a24.038,24.038,0,0,1,33.874,32.373" fill="none" stroke="#fff" stroke-linecap="round" stroke-linejoin="round" stroke-width="2.23"/>
      <path id="Path_3042" data-name="Path 3042" d="M816.117,704.3a24.037,24.037,0,0,1-33.439-33.455" fill="none" stroke="#fff" stroke-linecap="round" stroke-linejoin="round" stroke-width="2.23"/>
      <line id="Line_324" data-name="Line 324" x1="0.096" y2="0.12" transform="translate(785.687 666.91)" fill="none" stroke="#fff" stroke-linecap="round" stroke-linejoin="round" stroke-width="2.23"/>
      <line id="Line_325" data-name="Line 325" x1="0.096" y2="0.12" transform="translate(834.676 683.888)" fill="none" stroke="#fff" stroke-linecap="round" stroke-linejoin="round" stroke-width="2.23"/>
    </g>
  </g>
</svg>
