<svg xmlns="http://www.w3.org/2000/svg" xmlns:xlink="http://www.w3.org/1999/xlink" width="637.536" height="881.213" viewBox="0 0 637.536 881.213">
  <defs>
    <linearGradient id="linear-gradient" y1="0.5" x2="1" y2="0.5" gradientUnits="objectBoundingBox">
      <stop offset="0" stop-color="#41b2a2"/>
      <stop offset="1" stop-color="#012610"/>
    </linearGradient>
  </defs>
  <g id="Group_388" data-name="Group 388" transform="translate(-427.538 -4979.249)">
    <path id="Path_1764" data-name="Path 1764" d="M949.541,5353.807s-48.124,96.272-97.007,162.727c-19.45,26.45-39.021,48.173-55.725,57.232-16.351,8.865-30.192,22.64-41.646,37.9-29.664,39.52-43.354,89-43.354,89l-125-189.11s4.265-184.857,19.273-215.778c21.875-45.062,32.441-136.107,40.845-154.233,6.234-13.446,24.037-82.9,25.744-88.007.742-2.2,6.666-5.572,14.358-5.566,6.174,0,16.655,5.967,19.3,18.229,13.367,61.977-2.723,102.858-2.54,104.674,4.715,47.632-9.461,82.989.48,92.353.37.346,1.057.182,2.029-.438,17.232-11.065,124.186-166.992,137.359-170.359C857.571,5088.885,949.541,5353.807,949.541,5353.807Z" fill="#fc9e61"/>
    <path id="Path_1765" data-name="Path 1765" d="M749.415,5663.241s-1.7,84.037-6.576,197.221h-315.3c72.072-153.691,134.73-283.049,134.73-283.049S741.8,5582.9,749.415,5663.241Z" fill="#41b2a2"/>
    <path id="Path_1766" data-name="Path 1766" d="M1058.829,5027.991l-38.709,56.747-37.985,55.689a8.692,8.692,0,0,1-7.9,3.486c-9.115-.865-20.393-14.012-29.182-21.291l-.892-.732a27.418,27.418,0,0,1-3.639-38.5l58.057-70.18v-.007l17.22-20.812a27.418,27.418,0,0,1,38.5-3.639l.892.732A27.427,27.427,0,0,1,1058.829,5027.991Z" fill="#fc9e61"/>
    <path id="Path_1767" data-name="Path 1767" d="M1020.12,5084.738l-37.985,55.689a8.692,8.692,0,0,1-7.9,3.486l24.344-130.7C998.635,5013.945,1002.774,5072.589,1020.12,5084.738Z" fill="#f58e53"/>
    <path id="Path_1768" data-name="Path 1768" d="M852.534,5516.534c-19.45,26.45-39.021,48.173-55.725,57.232-16.351,8.865-30.192,22.64-41.646,37.9-13.175-6.141-28.192-13.346-42.871-20.481-17.874-8.687-18.56-34.068-1.053-43.473.172-.092.339-.185.5-.279,16.406-9.388,33.217-42.534,33.217-42.534Z" fill="#f58e53"/>
    <path id="Path_1769" data-name="Path 1769" d="M671.8,5056.415,661.674,5097.3s8.853,3.623,14.54.81S686.539,5058.617,671.8,5056.415Z" fill="#fcaf7b"/>
    <g id="Group_361" data-name="Group 361">
      <rect id="Rectangle_136" data-name="Rectangle 136" width="295.685" height="556.607" rx="39.465" transform="translate(706.33 4979.249)" fill="#060b33"/>
      <g id="Group_360" data-name="Group 360">
        <path id="Path_1770" data-name="Path 1770" d="M987.361,5021.885V5489.5a28.821,28.821,0,0,1-28.63,28.84H749.612a28.817,28.817,0,0,1-28.625-28.84V5021.885a28.817,28.817,0,0,1,28.625-28.84H958.731A28.821,28.821,0,0,1,987.361,5021.885Z" fill="#b9cfe4"/>
        <path id="Path_1771" data-name="Path 1771" d="M958.731,4993.045,752.2,5518.337h-2.587a28.817,28.817,0,0,1-28.625-28.84V5021.885a28.817,28.817,0,0,1,28.625-28.84Z" fill="#c3d9ea"/>
      </g>
      <path id="Rectangle_137" data-name="Rectangle 137" d="M13.962,0H99.327a13.962,13.962,0,0,1,13.962,13.962v0A13.962,13.962,0,0,1,99.327,27.924H13.961A13.961,13.961,0,0,1,0,13.962v0A13.962,13.962,0,0,1,13.962,0Z" transform="translate(797.53 4982.511)" fill="#1d277c"/>
    </g>
    <g id="Group_362" data-name="Group 362">
      <path id="Path_1772" data-name="Path 1772" d="M1039.56,5242.287l-5.773,2.194-38.817,14.751a24.547,24.547,0,0,1-2.751.872,26.514,26.514,0,0,1-31.349-16.194l-.569-1.491a26.516,26.516,0,0,1,15.322-34.106l36.188-13.751,2.629-1,5.773-2.194a26.511,26.511,0,0,1,34.1,15.323l.569,1.491A26.516,26.516,0,0,1,1039.56,5242.287Z" fill="#fc9e61"/>
      <path id="Path_1773" data-name="Path 1773" d="M1008.037,5243.178c-6.478,2.455-18.207,6.811-24.479,7.713-1.774.255-5.045-.71-8.1-4.052a23.948,23.948,0,0,1-4.882-8.8,28.006,28.006,0,0,1-1.326-5.62,23.731,23.731,0,0,1,.213-6.684,6.673,6.673,0,0,1,3.7-4.768c.008-.007.022-.007.029-.014a153.061,153.061,0,0,1,23.542-9.231c5.449-1.5,10.962.9,12.687,5.669l.815,2.228,4.166,11.409C1016.132,5235.763,1013.33,5241.184,1008.037,5243.178Z" fill="#fdc69f"/>
      <path id="Path_1774" data-name="Path 1774" d="M1008.037,5243.178c-6.478,2.455-18.207,6.811-24.479,7.713-1.774.255-5.045-.71-8.1-4.052-.326-.759-.624-1.561-.908-2.419a28,28,0,0,1-1.327-5.62,23.728,23.728,0,0,1,.213-6.684,6.672,6.672,0,0,1,3.7-4.768c.007-.007.021-.007.028-.014a153.07,153.07,0,0,1,23.543-9.231,11.158,11.158,0,0,1,9.528,1.511l4.166,11.409C1016.132,5235.763,1013.33,5241.184,1008.037,5243.178Z" fill="#fcaf7b"/>
    </g>
    <g id="Group_363" data-name="Group 363">
      <path id="Rectangle_138" data-name="Rectangle 138" d="M17.14,0H48.164A17.14,17.14,0,0,1,65.3,17.14v3.512a17.14,17.14,0,0,1-17.14,17.14H17.141A17.141,17.141,0,0,1,0,20.65V17.14A17.14,17.14,0,0,1,17.14,0Z" transform="translate(965.546 5273.049) rotate(-15.23)" fill="#fc9e61"/>
      <path id="Path_1775" data-name="Path 1775" d="M1005.76,5295.392c-5.5,1.469-15.44,4.059-20.648,4.343-1.9.106-5.691-1.5-8.167-6.478a22.657,22.657,0,0,1-2.2-8.621,17.115,17.115,0,0,1,.667-5.123,5.3,5.3,0,0,1,3.384-3.42.133.133,0,0,0,.029-.014,133.692,133.692,0,0,1,19.994-5.577c4.577-.8,8.919,1.4,9.991,5.173l.773,2.7,2.306,8.1C1012.954,5290.213,1010.251,5294.2,1005.76,5295.392Z" fill="#fdc69f"/>
      <path id="Path_1776" data-name="Path 1776" d="M1005.76,5295.392c-5.5,1.469-15.44,4.059-20.648,4.343-1.9.106-5.691-1.5-8.167-6.478a19.041,19.041,0,0,1-.6-4.13,17.181,17.181,0,0,1,.667-5.123,5.323,5.323,0,0,1,3.384-3.42c.015-.007.022-.007.029-.014a132.977,132.977,0,0,1,19.995-5.57c3.789-.667,7.421.731,9.167,3.371l2.306,8.1C1012.954,5290.213,1010.251,5294.2,1005.76,5295.392Z" fill="#fcaf7b"/>
    </g>
    <path id="Path_1777" data-name="Path 1777" d="M531.573,5641.174s61.614,59.012,103.15,81.8l31.448-22.306v32.9s61.848,10.937,81.357,0v-89.734l-173.715-87.084Z" opacity="0.3" fill="url(#linear-gradient)"/>
    <path id="Path_1778" data-name="Path 1778" d="M760.65,5726.429c-23.929,4.907-75.505-13.89-75.505-13.89l8.319-80.35-58.282,66.747c-29.659-11.037-76.046-39.84-103.607-57.763-13.722-8.928-22.78-15.154-22.78-15.154,38.892-62.584,78.015-121.12,78.015-121.12,11.483,22.971,38.661,42.919,68.123,58.874,48.959,26.518,104.223,42.011,104.223,42.011C759.139,5653.535,760.65,5726.429,760.65,5726.429Z" fill="#d7e4f0"/>
    <g id="Group_364" data-name="Group 364">
      <path id="Path_1779" data-name="Path 1779" d="M1038.615,5184.918c-.213.078-.426.149-.645.22l-39.245,10.075c-17.256,4.435-35.1-4.9-39.656-20.746l-2.334-8.118c-4.378-15.212,5.03-31.12,21.066-36.278l12.956-3.328,26.288-6.747c17.256-4.435,35.1,4.9,39.656,20.746l2.334,8.117C1063.349,5163.866,1054.253,5179.54,1038.615,5184.918Z" fill="#fc9e61"/>
      <path id="Path_1780" data-name="Path 1780" d="M1020.631,5173.963l-19.065,8.592c-.028.007-.064.014-.12.029a20.612,20.612,0,0,1-2.306.475c-.32.05-.646.085-.966.121a2.656,2.656,0,0,1-.4.007,3.033,3.033,0,0,1-2.632-4.286,18.963,18.963,0,0,0,1.078-12.928l-.454-1.66a.131.131,0,0,0-.014-.05l-1.476-5.413a20.3,20.3,0,0,0-6.911-10.537c-.39-.319-.8-.617-1.206-.9a5.477,5.477,0,0,1,1.6-9.749c.043-.014.078-.021.121-.035l20.924-3.165c5.173-1.4,10.154,2.576,11.566,7.748l1.681,6.166,3.576,13.148C1027.031,5166.7,1025.8,5172.558,1020.631,5173.963Z" fill="#fdc69f"/>
      <path id="Path_1781" data-name="Path 1781" d="M1020.631,5173.963l-19.065,8.592c-.028.007-.064.014-.12.029-.448.085-1.846.319-3.676.6a3.033,3.033,0,0,1-2.632-4.286,18.963,18.963,0,0,0,1.078-12.928l-.454-1.66a.131.131,0,0,0-.014-.05l-1.476-5.413a20.3,20.3,0,0,0-6.911-10.537,5.319,5.319,0,0,1,3-2.136c.036-.014.078-.021.121-.035l20.924-3.165c4.357-1.184,8.571,1.455,10.643,5.4l3.576,13.148C1027.031,5166.7,1025.8,5172.558,1020.631,5173.963Z" fill="#fcaf7b"/>
    </g>
    <path id="Path_1782" data-name="Path 1782" d="M706.329,5389.049s-8.562-74.737-16.461-89.308-14.583-43.76-2.43-65.447,16.351-63.417,16.351-63.417c4.715,47.632-9.461,82.989.48,92.353.37.346,1.057.182,2.029-.438Z" fill="#f58e53"/>
    <g id="Group_365" data-name="Group 365">
      <path id="Rectangle_139" data-name="Rectangle 139" d="M9.294,0H138.353a9.293,9.293,0,0,1,9.293,9.293V44.047a9.293,9.293,0,0,1-9.293,9.293H9.293A9.293,9.293,0,0,1,0,44.047V9.294A9.294,9.294,0,0,1,9.294,0Z" transform="translate(779.626 5037.709)" fill="#92afd3"/>
    </g>
    <g id="Group_366" data-name="Group 366">
      <path id="Rectangle_140" data-name="Rectangle 140" d="M15.525,0H166.087a15.526,15.526,0,0,1,15.526,15.526V50.279A15.525,15.525,0,0,1,166.088,65.8H15.526A15.526,15.526,0,0,1,0,50.278V15.525A15.525,15.525,0,0,1,15.525,0Z" transform="translate(781.642 5418.319)" fill="#6886bd"/>
    </g>
    <g id="Group_368" data-name="Group 368">
      <rect id="Rectangle_141" data-name="Rectangle 141" width="44.106" height="6.116" rx="3.058" transform="translate(800.649 5430.897)" fill="#3a55a4"/>
      <g id="Group_367" data-name="Group 367">
        <path id="Path_1783" data-name="Path 1783" d="M842.761,5452.672H802.642a2,2,0,0,1-1.994-1.994h0a2,2,0,0,1,1.994-1.993h40.119a2,2,0,0,1,1.994,1.993h0A2,2,0,0,1,842.761,5452.672Z" fill="#3a55a4"/>
        <path id="Rectangle_142" data-name="Rectangle 142" d="M1.993,0H23.886A1.994,1.994,0,0,1,25.88,1.994v0a1.993,1.993,0,0,1-1.993,1.993H1.994A1.994,1.994,0,0,1,0,1.993v0A1.993,1.993,0,0,1,1.993,0Z" transform="translate(800.648 5458.121)" fill="#3a55a4"/>
        <path id="Rectangle_143" data-name="Rectangle 143" d="M1.994,0H68.721a1.994,1.994,0,0,1,1.994,1.994v0a1.994,1.994,0,0,1-1.994,1.994H1.993A1.993,1.993,0,0,1,0,1.994v0A1.994,1.994,0,0,1,1.994,0Z" transform="translate(832.721 5458.121)" fill="#3a55a4"/>
        <path id="Path_1784" data-name="Path 1784" d="M935.98,5452.672h-82.6a2,2,0,0,1-1.994-1.994h0a2,2,0,0,1,1.994-1.993h82.6a2,2,0,0,1,1.993,1.993h0A2,2,0,0,1,935.98,5452.672Z" fill="#3a55a4"/>
        <path id="Path_1785" data-name="Path 1785" d="M842.761,5471.545H802.642a2,2,0,0,1-1.994-1.994h0a2,2,0,0,1,1.994-1.994h40.119a2,2,0,0,1,1.994,1.994h0A2,2,0,0,1,842.761,5471.545Z" fill="#3a55a4"/>
        <path id="Path_1786" data-name="Path 1786" d="M935.98,5471.545h-82.6a2,2,0,0,1-1.994-1.994h0a2,2,0,0,1,1.994-1.994h82.6a2,2,0,0,1,1.993,1.994h0A2,2,0,0,1,935.98,5471.545Z" fill="#3a55a4"/>
      </g>
      <rect id="Rectangle_144" data-name="Rectangle 144" width="62.361" height="6.116" rx="3.058" transform="translate(850.218 5430.897)" fill="#3a55a4"/>
    </g>
    <g id="Group_370" data-name="Group 370">
      <rect id="Rectangle_145" data-name="Rectangle 145" width="44.106" height="6.116" rx="3.058" transform="translate(798.632 5047.998)" fill="#6886bd"/>
      <g id="Group_369" data-name="Group 369">
        <path id="Path_1787" data-name="Path 1787" d="M840.744,5069.772H800.625a2,2,0,0,1-1.994-1.993h0a2,2,0,0,1,1.994-1.994h40.119a2,2,0,0,1,1.994,1.994h0A2,2,0,0,1,840.744,5069.772Z" fill="#6886bd"/>
        <path id="Rectangle_146" data-name="Rectangle 146" d="M1.994,0H23.886A1.994,1.994,0,0,1,25.88,1.994v0a1.994,1.994,0,0,1-1.994,1.994H1.993A1.993,1.993,0,0,1,0,1.994v0A1.994,1.994,0,0,1,1.994,0Z" transform="translate(798.631 5075.221)" fill="#6886bd"/>
        <rect id="Rectangle_147" data-name="Rectangle 147" width="40.714" height="3.987" rx="1.994" transform="translate(830.704 5075.221)" fill="#6886bd"/>
        <path id="Path_1788" data-name="Path 1788" d="M903.963,5069.772h-52.6a2,2,0,0,1-1.994-1.993h0a2,2,0,0,1,1.994-1.994h52.6a2,2,0,0,1,1.993,1.994h0A2,2,0,0,1,903.963,5069.772Z" fill="#6886bd"/>
      </g>
      <path id="Rectangle_148" data-name="Rectangle 148" d="M3.058,0H29.3a3.058,3.058,0,0,1,3.058,3.058v0A3.058,3.058,0,0,1,29.3,6.116H3.057A3.057,3.057,0,0,1,0,3.059v0A3.058,3.058,0,0,1,3.058,0Z" transform="translate(848.201 5047.998)" fill="#6886bd"/>
    </g>
    <g id="Group_374" data-name="Group 374">
      <path id="Path_1789" data-name="Path 1789" d="M761.313,5022.3l-2.98,2.138-3-2.115a3.668,3.668,0,0,1,5.976-.023Z" fill="#fff"/>
      <g id="Group_371" data-name="Group 371">
        <path id="Path_1790" data-name="Path 1790" d="M758.332,5015.555a8.851,8.851,0,0,0-7.248,3.77l1.89,1.327a6.552,6.552,0,0,1,10.686-.04l1.884-1.353A8.866,8.866,0,0,0,758.332,5015.555Z" fill="#fff"/>
      </g>
      <g id="Group_372" data-name="Group 372">
        <path id="Path_1791" data-name="Path 1791" d="M758.332,5005.649a18.735,18.735,0,0,0-15.34,7.971l1.9,1.327a16.442,16.442,0,0,1,26.824-.1l1.875-1.352A18.729,18.729,0,0,0,758.332,5005.649Z" fill="#fff"/>
      </g>
      <g id="Group_373" data-name="Group 373">
        <path id="Path_1792" data-name="Path 1792" d="M758.332,5011.072a13.407,13.407,0,0,0-10.937,5.649l1.89,1.327a11.119,11.119,0,0,1,18.049-.07l1.875-1.342A13.4,13.4,0,0,0,758.332,5011.072Z" fill="#fff"/>
      </g>
    </g>
    <g id="Group_375" data-name="Group 375">
      <path id="Path_1793" data-name="Path 1793" d="M731.782,5452.609a19.178,19.178,0,1,0,19.177-19.177A19.084,19.084,0,0,0,731.782,5452.609Z" fill="#fff"/>
      <path id="Path_1794" data-name="Path 1794" d="M759.268,5462.313a.542.542,0,0,0-.081-.124,1.309,1.309,0,0,0-.262-.271l-.005,0a3.345,3.345,0,0,0-.807-.451l-.035-.013a13.255,13.255,0,0,0-3.291-.825c-.532-.081-.953-.133-1.151-.154-.55-.443-1.289-2.2-1.409-4.894l0,.009s.614-1.426,1.427-.979c1.267.691,3.715-2.11,2.934-5.791a10.1,10.1,0,0,0-.3-1.092,2.263,2.263,0,0,0,.842.206c.735,0,1.847-1.881,2-2.513s-.013-2.706-1.023-3.321c-.983-.6-2.543.09-2.612.116.5-.705,2.222-.563,2.535-.528-4.013-.834-4.842,1.74-4.91,1.972-2.553-2.307-6.449,1.679-7.407,2.745-.065.056-.129.116-.194.181a2.731,2.731,0,0,0-.721.644,3.288,3.288,0,0,0-.662,2.131,7.543,7.543,0,0,0,.507,2.547c.232,2.23.876,4.993,1.908,5.074,0,0,.365,0,.915-.043,0,.026,0,.048,0,.073.017.374.03.795.034,1.216v.253c0,1.122-.064,2.187-.318,2.321-.085.008-.158.013-.223.021-.1,0-.3.03-.3.03-.893.116-1.529.206-1.98.284a2.616,2.616,0,0,0-1.336.429,1.746,1.746,0,0,0-.155.164,10.223,10.223,0,0,0-2.9,3.806,16.394,16.394,0,0,0,20.386.64A21.9,21.9,0,0,0,759.268,5462.313Z" fill="#3a55a4"/>
    </g>
    <path id="Path_1795" data-name="Path 1795" d="M938.618,5063.235a19.177,19.177,0,1,0,19.177-19.177A19.081,19.081,0,0,0,938.618,5063.235Z" fill="#fff"/>
    <path id="Path_1796" data-name="Path 1796" d="M760.65,5726.429c-23.929,4.907-75.505-13.89-75.505-13.89l8.319-80.35-58.282,66.747c-29.659-11.037-76.046-39.84-103.607-57.763,70.626-7.7,123.358-77.4,123.358-77.4,48.959,26.518,104.223,42.011,104.223,42.011C759.139,5653.535,760.65,5726.429,760.65,5726.429Z" fill="#c3d9ea"/>
    <path id="Path_1797" data-name="Path 1797" d="M596.436,5653.448a9.7,9.7,0,1,1,9.611,9.79A9.7,9.7,0,0,1,596.436,5653.448Z" fill="#41b2a2"/>
    <g id="Group_376" data-name="Group 376">
      <path id="Path_1798" data-name="Path 1798" d="M957.795,5074.628a11.43,11.43,0,0,1-11.358-11.393,11.116,11.116,0,0,1,.719-3.979l6.643,13.374c.087.176.193.315.4.315a.44.44,0,0,0,.4-.315l3.05-6.854c.035-.07.07-.14.14-.14s.105.07.14.14l3.05,6.854a.44.44,0,0,0,.4.315c.211,0,.316-.139.4-.315l6.643-13.374a11.137,11.137,0,0,1,.718,3.979A11.43,11.43,0,0,1,957.795,5074.628Zm0-13.97c-.07,0-.1-.07-.14-.14l-3.576-8.028a10.972,10.972,0,0,1,7.432,0l-3.576,8.028C957.9,5060.588,957.865,5060.658,957.795,5060.658Zm-3.628,8.238c-.07,0-.1-.07-.14-.14l-5.785-11.656a11.754,11.754,0,0,1,4.084-3.839l4.155,9.255a.292.292,0,0,0,.315.211h2a.293.293,0,0,0,.316-.211l4.154-9.255a11.745,11.745,0,0,1,4.084,3.839l-5.784,11.656c-.035.07-.07.14-.14.14s-.106-.07-.141-.14l-2.173-4.978a.293.293,0,0,0-.316-.21h-2a.293.293,0,0,0-.315.21l-2.174,4.978C954.272,5068.826,954.237,5068.9,954.167,5068.9Zm3.628,6.889a12.55,12.55,0,1,0-12.55-12.55A12.538,12.538,0,0,0,957.795,5075.785Z" fill="#6886bd"/>
    </g>
    <g id="Group_379" data-name="Group 379">
      <path id="Rectangle_149" data-name="Rectangle 149" d="M14.347,0H140.563a14.348,14.348,0,0,1,14.348,14.348V70.329a14.348,14.348,0,0,1-14.348,14.348H14.347A14.347,14.347,0,0,1,0,70.33V14.347A14.347,14.347,0,0,1,14.347,0Z" transform="translate(778.096 5313.488)" fill="#92afd3"/>
    </g>
    <g id="Group_382" data-name="Group 382">
      <rect id="Rectangle_150" data-name="Rectangle 150" width="46.402" height="6.434" rx="2.955" transform="translate(797.13 5330.125)" fill="#6886bd"/>
      <g id="Group_380" data-name="Group 380">
        <path id="Path_1802" data-name="Path 1802" d="M841.433,5353.032H799.226a2.1,2.1,0,0,1-2.1-2.1h0a2.1,2.1,0,0,1,2.1-2.1h42.207a2.1,2.1,0,0,1,2.1,2.1h0A2.1,2.1,0,0,1,841.433,5353.032Z" fill="#6886bd"/>
        <rect id="Rectangle_151" data-name="Rectangle 151" width="27.226" height="4.195" rx="1.927" transform="translate(797.129 5358.764)" fill="#6886bd"/>
        <rect id="Rectangle_152" data-name="Rectangle 152" width="42.833" height="4.195" rx="1.927" transform="translate(830.871 5358.764)" fill="#6886bd"/>
        <path id="Path_1803" data-name="Path 1803" d="M907.942,5353.032H852.6a2.1,2.1,0,0,1-2.1-2.1h0a2.1,2.1,0,0,1,2.1-2.1h55.341a2.1,2.1,0,0,1,2.1,2.1h0A2.1,2.1,0,0,1,907.942,5353.032Z" fill="#6886bd"/>
        <path id="Path_1804" data-name="Path 1804" d="M841.433,5372.887H799.226a2.1,2.1,0,0,1-2.1-2.1h0a2.1,2.1,0,0,1,2.1-2.1h42.207a2.1,2.1,0,0,1,2.1,2.1h0A2.1,2.1,0,0,1,841.433,5372.887Z" fill="#6886bd"/>
        <path id="Path_1805" data-name="Path 1805" d="M907.942,5372.887H852.6a2.1,2.1,0,0,1-2.1-2.1h0a2.1,2.1,0,0,1,2.1-2.1h55.341a2.1,2.1,0,0,1,2.1,2.1h0A2.1,2.1,0,0,1,907.942,5372.887Z" fill="#6886bd"/>
      </g>
      <g id="Group_381" data-name="Group 381">
        <path id="Path_1806" data-name="Path 1806" d="M841.433,5383.22H799.226a2.1,2.1,0,0,1-2.1-2.1h0a2.1,2.1,0,0,1,2.1-2.1h42.207a2.1,2.1,0,0,1,2.1,2.1h0A2.1,2.1,0,0,1,841.433,5383.22Z" fill="#6886bd"/>
        <path id="Path_1807" data-name="Path 1807" d="M907.942,5383.22H852.6a2.1,2.1,0,0,1-2.1-2.1h0a2.1,2.1,0,0,1,2.1-2.1h55.341a2.1,2.1,0,0,1,2.1,2.1h0A2.1,2.1,0,0,1,907.942,5383.22Z" fill="#6886bd"/>
      </g>
      <path id="Rectangle_153" data-name="Rectangle 153" d="M2.956,0H31.09a2.955,2.955,0,0,1,2.955,2.955v.524A2.955,2.955,0,0,1,31.09,6.434H2.955A2.955,2.955,0,0,1,0,3.479V2.956A2.956,2.956,0,0,1,2.956,0Z" transform="translate(849.279 5330.125)" fill="#6886bd"/>
    </g>
    <path id="Path_1808" data-name="Path 1808" d="M730.381,5355.164a18.3,18.3,0,0,0,28.794,15c.152-.1.3-.212.444-.32a18.3,18.3,0,1,0-29.238-14.682Z" fill="#fff"/>
    <path id="Path_1809" data-name="Path 1809" d="M752.7,5365.5l-1.419-1.256c-.118.025-.235.045-.353.065a9.722,9.722,0,0,0-.829-.516c.093-.573.17-1.1.235-1.577a25.241,25.241,0,0,0,.24-2.8c.752-.037,1.26-.118,1.26-.118,1.422-.329,1.492-5.186,1.163-7.718a1.817,1.817,0,0,0,.792-.15c1.077-.476,1.138-2.1,1.138-2.1a1.906,1.906,0,0,1-.772.768s1.8-2.467-.289-4.154-4.206-.585-5.417-.512c-2.658.163-4.377.321-5.243,2.069-.858,1.723-.52,6.462,1.122,8.2.028.163.056.321.077.484a3.245,3.245,0,0,0,.65,1.548,10.866,10.866,0,0,1-1.967,4.577,7.105,7.105,0,0,0-1.414,1.524l-.029.02.012,0a15.437,15.437,0,0,0-1.987,4.361c0,.008,0,.016-.008.024a14.628,14.628,0,0,0,2.808,1.545l.2.081c.017,0,.029.012.045.016.106.045.215.086.321.126.26.1.52.2.784.281s.557.17.838.244c.13.032.26.065.39.093.114.028.227.053.345.073l.049.012c.077.017.155.029.232.045.178.033.361.065.544.093.041,0,.086.013.126.017.1.016.2.028.3.04l.427.049c.158.017.321.029.483.037s.3.02.46.024.321.008.483.008.346,0,.52-.008a.153.153,0,0,0,.045,0c.041,0,.085,0,.126,0,.086,0,.171,0,.256-.012a.1.1,0,0,1,.033,0c.162-.008.321-.02.483-.037a15.3,15.3,0,0,0,5.8-1.756A16.185,16.185,0,0,0,752.7,5365.5Z" fill="#6886bd"/>
  </g>
</svg>
