<svg xmlns="http://www.w3.org/2000/svg" xmlns:xlink="http://www.w3.org/1999/xlink" width="637.536" height="881.213" viewBox="0 0 637.536 881.213">
  <defs>
    <linearGradient id="linear-gradient" y1="0.5" x2="1" y2="0.5" gradientUnits="objectBoundingBox">
      <stop offset="0" stop-color="#ffc315"/>
      <stop offset="1" stop-color="#7d3d05"/>
    </linearGradient>
  </defs>
  <g id="Group_455" data-name="Group 455" transform="translate(-427.538 -2618.89)">
    <path id="Path_2282" data-name="Path 2282" d="M949.541,2993.448s-48.124,96.272-97.007,162.727c-19.45,26.45-39.021,48.173-55.725,57.232-16.351,8.865-30.192,22.64-41.646,37.9-29.664,39.52-43.354,89-43.354,89l-125-189.11s4.265-184.857,19.273-215.778c21.875-45.062,32.441-136.107,40.845-154.233,6.234-13.446,24.037-82.9,25.744-88.007.742-2.2,6.666-5.572,14.358-5.566,6.174,0,16.655,5.967,19.3,18.229,13.367,61.977-2.723,102.857-2.54,104.674,4.715,47.632-9.461,82.989.48,92.353.37.346,1.057.182,2.029-.438,17.232-11.065,124.186-166.992,137.359-170.359C857.571,2728.526,949.541,2993.448,949.541,2993.448Z" fill="#fc9e61"/>
    <path id="Path_2283" data-name="Path 2283" d="M749.415,3302.882s-1.7,84.037-6.576,197.221h-315.3c72.072-153.691,134.73-283.049,134.73-283.049S741.8,3222.538,749.415,3302.882Z" fill="#ffc315"/>
    <path id="Path_2284" data-name="Path 2284" d="M1058.829,2667.632l-38.709,56.747-37.985,55.689a8.692,8.692,0,0,1-7.9,3.486c-9.115-.865-20.393-14.012-29.182-21.291l-.892-.732a27.418,27.418,0,0,1-3.639-38.5l58.057-70.18v-.007l17.22-20.812a27.418,27.418,0,0,1,38.5-3.639l.892.732A27.426,27.426,0,0,1,1058.829,2667.632Z" fill="#fc9e61"/>
    <path id="Path_2285" data-name="Path 2285" d="M1020.12,2724.379l-37.985,55.689a8.692,8.692,0,0,1-7.9,3.486l24.344-130.7C998.635,2653.586,1002.774,2712.23,1020.12,2724.379Z" fill="#f58e53"/>
    <path id="Path_2286" data-name="Path 2286" d="M852.534,3156.175c-19.45,26.45-39.021,48.173-55.725,57.232-16.351,8.865-30.192,22.64-41.646,37.9-13.175-6.141-28.192-13.346-42.871-20.481-17.874-8.687-18.56-34.068-1.053-43.473.172-.092.339-.185.5-.279,16.406-9.388,33.217-42.534,33.217-42.534Z" fill="#f58e53"/>
    <path id="Path_2287" data-name="Path 2287" d="M671.8,2696.056l-10.128,40.889s8.853,3.623,14.54.81S686.539,2698.258,671.8,2696.056Z" fill="#fcaf7b"/>
    <g id="Group_430" data-name="Group 430">
      <rect id="Rectangle_162" data-name="Rectangle 162" width="295.685" height="556.607" rx="39.465" transform="translate(706.33 2618.89)" fill="#060b33"/>
      <g id="Group_429" data-name="Group 429">
        <path id="Path_2288" data-name="Path 2288" d="M987.361,2661.526v467.612a28.821,28.821,0,0,1-28.63,28.84H749.612a28.817,28.817,0,0,1-28.625-28.84V2661.526a28.817,28.817,0,0,1,28.625-28.84H958.731A28.821,28.821,0,0,1,987.361,2661.526Z" fill="#b9cfe4"/>
        <path id="Path_2289" data-name="Path 2289" d="M958.731,2632.686,752.2,3157.978h-2.587a28.817,28.817,0,0,1-28.625-28.84V2661.526a28.817,28.817,0,0,1,28.625-28.84Z" fill="#c3d9ea"/>
      </g>
      <path id="Rectangle_163" data-name="Rectangle 163" d="M13.962,0H99.327a13.962,13.962,0,0,1,13.962,13.962v0A13.962,13.962,0,0,1,99.327,27.924H13.961A13.961,13.961,0,0,1,0,13.962v0A13.962,13.962,0,0,1,13.962,0Z" transform="translate(797.53 2622.152)" fill="#1d277c"/>
    </g>
    <g id="Group_431" data-name="Group 431">
      <path id="Path_2290" data-name="Path 2290" d="M1039.56,2881.928l-5.773,2.194-38.817,14.751a24.649,24.649,0,0,1-2.751.872,26.514,26.514,0,0,1-31.349-16.194l-.569-1.491a26.516,26.516,0,0,1,15.322-34.106l36.188-13.751,2.629-1,5.773-2.194a26.511,26.511,0,0,1,34.1,15.323l.569,1.491A26.516,26.516,0,0,1,1039.56,2881.928Z" fill="#fc9e61"/>
      <path id="Path_2291" data-name="Path 2291" d="M1008.037,2882.819c-6.478,2.455-18.207,6.811-24.479,7.713-1.774.255-5.045-.71-8.1-4.052a23.948,23.948,0,0,1-4.882-8.8,28,28,0,0,1-1.326-5.62,23.729,23.729,0,0,1,.213-6.684,6.673,6.673,0,0,1,3.7-4.768c.008-.007.022-.007.029-.014a153.06,153.06,0,0,1,23.542-9.231c5.449-1.5,10.962.9,12.687,5.669l.815,2.228,4.166,11.409C1016.132,2875.4,1013.33,2880.825,1008.037,2882.819Z" fill="#fdc69f"/>
      <path id="Path_2292" data-name="Path 2292" d="M1008.037,2882.819c-6.478,2.455-18.207,6.811-24.479,7.713-1.774.255-5.045-.71-8.1-4.052-.326-.759-.624-1.561-.908-2.419a28.024,28.024,0,0,1-1.327-5.62,23.729,23.729,0,0,1,.213-6.684,6.672,6.672,0,0,1,3.7-4.768c.007-.007.021-.007.028-.014a153.07,153.07,0,0,1,23.543-9.231,11.159,11.159,0,0,1,9.528,1.511l4.166,11.409C1016.132,2875.4,1013.33,2880.825,1008.037,2882.819Z" fill="#fcaf7b"/>
    </g>
    <g id="Group_432" data-name="Group 432">
      <path id="Rectangle_164" data-name="Rectangle 164" d="M17.138,0H48.164A17.139,17.139,0,0,1,65.3,17.139v3.511A17.141,17.141,0,0,1,48.163,37.791H17.141A17.141,17.141,0,0,1,0,20.65V17.138A17.138,17.138,0,0,1,17.138,0Z" transform="translate(965.546 2912.69) rotate(-15.23)" fill="#fc9e61"/>
      <path id="Path_2293" data-name="Path 2293" d="M1005.76,2935.033c-5.5,1.469-15.44,4.059-20.648,4.343-1.9.106-5.691-1.5-8.167-6.478a22.66,22.66,0,0,1-2.2-8.621,17.117,17.117,0,0,1,.667-5.123,5.3,5.3,0,0,1,3.384-3.42c.014-.007.021-.007.029-.014a133.692,133.692,0,0,1,19.994-5.577c4.577-.8,8.919,1.4,9.991,5.173l.773,2.7,2.306,8.1C1012.954,2929.854,1010.251,2933.841,1005.76,2935.033Z" fill="#fdc69f"/>
      <path id="Path_2294" data-name="Path 2294" d="M1005.76,2935.033c-5.5,1.469-15.44,4.059-20.648,4.343-1.9.106-5.691-1.5-8.167-6.478a19.045,19.045,0,0,1-.6-4.13,17.18,17.18,0,0,1,.667-5.123,5.323,5.323,0,0,1,3.384-3.42c.015-.007.022-.007.029-.014a132.948,132.948,0,0,1,19.995-5.57c3.789-.667,7.421.731,9.167,3.371l2.306,8.1C1012.954,2929.854,1010.251,2933.841,1005.76,2935.033Z" fill="#fcaf7b"/>
    </g>
    <path id="Path_2295" data-name="Path 2295" d="M531.573,3280.815s61.614,59.012,103.15,81.8l31.448-22.306v32.905s61.848,10.937,81.357,0v-89.734l-173.715-87.084Z" opacity="0.3" fill="url(#linear-gradient)"/>
    <path id="Path_2296" data-name="Path 2296" d="M760.65,3366.07c-23.929,4.907-75.505-13.89-75.505-13.89l8.319-80.35-58.282,66.747c-29.659-11.037-76.046-39.84-103.607-57.763-13.722-8.928-22.78-15.154-22.78-15.154,38.892-62.584,78.015-121.12,78.015-121.12,11.483,22.971,38.661,42.919,68.123,58.874,48.959,26.518,104.223,42.011,104.223,42.011C759.139,3293.176,760.65,3366.07,760.65,3366.07Z" fill="#d7e4f0"/>
    <g id="Group_433" data-name="Group 433">
      <path id="Path_2297" data-name="Path 2297" d="M614.352,3299.007a25.043,25.043,0,0,0-17.139,6.757,25.131,25.131,0,0,0-42.7-21.256,25.137,25.137,0,1,0-6.391,10.972,25.129,25.129,0,0,0,41.347,25.131,25.133,25.133,0,1,0,24.883-21.6Z" fill="#d7e4f0"/>
      <path id="Path_2298" data-name="Path 2298" d="M743.233,3347.167a17.4,17.4,0,0,0-9.376,2.739,25.142,25.142,0,1,0-5.807,23.457,17.5,17.5,0,1,0,15.183-26.2Z" fill="#d7e4f0"/>
    </g>
    <g id="Group_434" data-name="Group 434">
      <path id="Path_2299" data-name="Path 2299" d="M1038.615,2824.559c-.213.078-.426.149-.645.22l-39.245,10.075c-17.256,4.435-35.1-4.9-39.656-20.746l-2.334-8.118c-4.378-15.212,5.03-31.12,21.066-36.278l12.956-3.328,26.288-6.747c17.256-4.435,35.1,4.9,39.656,20.746l2.334,8.117C1063.349,2803.507,1054.253,2819.181,1038.615,2824.559Z" fill="#fc9e61"/>
      <path id="Path_2300" data-name="Path 2300" d="M1020.631,2813.6l-19.065,8.592c-.028.007-.064.014-.12.029a20.611,20.611,0,0,1-2.306.475c-.32.05-.646.085-.966.121a2.594,2.594,0,0,1-.4.007,3.033,3.033,0,0,1-2.632-4.286,18.964,18.964,0,0,0,1.078-12.928l-.454-1.66a.133.133,0,0,0-.014-.05l-1.476-5.413a20.3,20.3,0,0,0-6.911-10.537c-.39-.319-.8-.617-1.206-.9a5.477,5.477,0,0,1,1.6-9.749c.043-.014.078-.021.121-.035l20.924-3.165c5.173-1.405,10.154,2.575,11.566,7.748l1.681,6.166,3.576,13.148C1027.031,2806.345,1025.8,2812.2,1020.631,2813.6Z" fill="#fd1a16"/>
      <path id="Path_2301" data-name="Path 2301" d="M1020.631,2813.6l-19.065,8.592c-.028.007-.064.014-.12.029-.448.085-1.846.319-3.676.6a3.033,3.033,0,0,1-2.632-4.286,18.964,18.964,0,0,0,1.078-12.928l-.454-1.66a.133.133,0,0,0-.014-.05l-1.476-5.413a20.3,20.3,0,0,0-6.911-10.537,5.317,5.317,0,0,1,3-2.136c.036-.014.078-.021.121-.035l20.924-3.165c4.357-1.184,8.571,1.455,10.643,5.4l3.576,13.148C1027.031,2806.345,1025.8,2812.2,1020.631,2813.6Z" fill="#c2000b"/>
    </g>
    <path id="Path_2302" data-name="Path 2302" d="M706.329,3028.69s-8.562-74.737-16.461-89.308-14.583-43.76-2.43-65.447,16.351-63.417,16.351-63.417c4.715,47.632-9.461,82.989.48,92.353.37.346,1.057.182,2.029-.438Z" fill="#f58e53"/>
    <g id="Group_435" data-name="Group 435">
      <rect id="Rectangle_165" data-name="Rectangle 165" width="147.646" height="53.34" rx="26.67" transform="translate(777.626 2677.35)" fill="#92afd3"/>
    </g>
    <g id="Group_436" data-name="Group 436">
      <path id="Rectangle_166" data-name="Rectangle 166" d="M32.9,0H138.711a32.9,32.9,0,0,1,32.9,32.9v0a32.9,32.9,0,0,1-32.9,32.9H32.9A32.9,32.9,0,0,1,0,32.9v0A32.9,32.9,0,0,1,32.9,0Z" transform="translate(741.642 3075.96)" fill="#92afd3"/>
    </g>
    <g id="Group_438" data-name="Group 438">
      <rect id="Rectangle_167" data-name="Rectangle 167" width="44.106" height="6.116" rx="3.058" transform="translate(760.649 3088.539)" fill="#6886bd"/>
      <g id="Group_437" data-name="Group 437">
        <path id="Path_2303" data-name="Path 2303" d="M802.761,3110.313H762.642a2,2,0,0,1-1.994-1.994h0a2,2,0,0,1,1.994-1.993h40.119a2,2,0,0,1,1.994,1.993h0A2,2,0,0,1,802.761,3110.313Z" fill="#6886bd"/>
        <path id="Rectangle_168" data-name="Rectangle 168" d="M1.993,0H23.886A1.994,1.994,0,0,1,25.88,1.994v0a1.993,1.993,0,0,1-1.993,1.993H1.994A1.994,1.994,0,0,1,0,1.993v0A1.993,1.993,0,0,1,1.993,0Z" transform="translate(760.648 3115.762)" fill="#6886bd"/>
        <path id="Rectangle_169" data-name="Rectangle 169" d="M1.994,0H38.721a1.994,1.994,0,0,1,1.994,1.994v0a1.994,1.994,0,0,1-1.994,1.994H1.993A1.993,1.993,0,0,1,0,1.994v0A1.994,1.994,0,0,1,1.994,0Z" transform="translate(792.721 3115.762)" fill="#6886bd"/>
        <path id="Path_2304" data-name="Path 2304" d="M865.98,3110.313h-52.6a2,2,0,0,1-1.994-1.994h0a2,2,0,0,1,1.994-1.993h52.6a2,2,0,0,1,1.993,1.993h0A2,2,0,0,1,865.98,3110.313Z" fill="#6886bd"/>
        <path id="Path_2305" data-name="Path 2305" d="M802.761,3129.186H762.642a2,2,0,0,1-1.994-1.994h0a2,2,0,0,1,1.994-1.994h40.119a2,2,0,0,1,1.994,1.994h0A2,2,0,0,1,802.761,3129.186Z" fill="#6886bd"/>
        <path id="Path_2306" data-name="Path 2306" d="M865.98,3129.186h-52.6a2,2,0,0,1-1.994-1.994h0a2,2,0,0,1,1.994-1.994h52.6a2,2,0,0,1,1.993,1.994h0A2,2,0,0,1,865.98,3129.186Z" fill="#6886bd"/>
      </g>
      <rect id="Rectangle_170" data-name="Rectangle 170" width="32.361" height="6.116" rx="3.058" transform="translate(810.218 3088.539)" fill="#6886bd"/>
    </g>
    <g id="Group_440" data-name="Group 440">
      <rect id="Rectangle_171" data-name="Rectangle 171" width="44.106" height="6.116" rx="3.058" transform="translate(796.632 2687.639)" fill="#6886bd"/>
      <g id="Group_439" data-name="Group 439">
        <path id="Path_2307" data-name="Path 2307" d="M838.744,2709.413H798.625a2,2,0,0,1-1.994-1.993h0a2,2,0,0,1,1.994-1.994h40.119a2,2,0,0,1,1.994,1.994h0A2,2,0,0,1,838.744,2709.413Z" fill="#6886bd"/>
        <path id="Rectangle_172" data-name="Rectangle 172" d="M1.994,0H23.886A1.994,1.994,0,0,1,25.88,1.994v0a1.994,1.994,0,0,1-1.994,1.994H1.993A1.993,1.993,0,0,1,0,1.994v0A1.994,1.994,0,0,1,1.994,0Z" transform="translate(796.631 2714.862)" fill="#6886bd"/>
        <rect id="Rectangle_173" data-name="Rectangle 173" width="40.714" height="3.987" rx="1.994" transform="translate(828.704 2714.862)" fill="#6886bd"/>
        <path id="Path_2308" data-name="Path 2308" d="M901.963,2709.413h-52.6a2,2,0,0,1-1.994-1.993h0a2,2,0,0,1,1.994-1.994h52.6a2,2,0,0,1,1.993,1.994h0A2,2,0,0,1,901.963,2709.413Z" fill="#6886bd"/>
      </g>
      <path id="Rectangle_174" data-name="Rectangle 174" d="M3.058,0H29.3a3.058,3.058,0,0,1,3.058,3.058v0A3.058,3.058,0,0,1,29.3,6.116H3.057A3.057,3.057,0,0,1,0,3.059v0A3.058,3.058,0,0,1,3.058,0Z" transform="translate(846.201 2687.639)" fill="#6886bd"/>
    </g>
    <g id="Group_444" data-name="Group 444">
      <path id="Path_2309" data-name="Path 2309" d="M761.313,2661.937l-2.98,2.138-3-2.115a3.668,3.668,0,0,1,5.976-.023Z" fill="#fff"/>
      <g id="Group_441" data-name="Group 441">
        <path id="Path_2310" data-name="Path 2310" d="M758.332,2655.2a8.852,8.852,0,0,0-7.248,3.77l1.89,1.327a6.552,6.552,0,0,1,10.686-.04l1.884-1.353A8.866,8.866,0,0,0,758.332,2655.2Z" fill="#fff"/>
      </g>
      <g id="Group_442" data-name="Group 442">
        <path id="Path_2311" data-name="Path 2311" d="M758.332,2645.29a18.736,18.736,0,0,0-15.34,7.971l1.9,1.327a16.442,16.442,0,0,1,26.824-.1l1.875-1.352A18.729,18.729,0,0,0,758.332,2645.29Z" fill="#fff"/>
      </g>
      <g id="Group_443" data-name="Group 443">
        <path id="Path_2312" data-name="Path 2312" d="M758.332,2650.713a13.407,13.407,0,0,0-10.937,5.649l1.89,1.327a11.119,11.119,0,0,1,18.049-.07l1.875-1.342A13.4,13.4,0,0,0,758.332,2650.713Z" fill="#fff"/>
      </g>
    </g>
    <path id="Path_2313" data-name="Path 2313" d="M928.618,3088.319a19.177,19.177,0,1,0,19.177-19.177A19.084,19.084,0,0,0,928.618,3088.319Z" fill="#fff"/>
    <path id="Path_2314" data-name="Path 2314" d="M957.6,3099.187a.639.639,0,0,0-.1-.146,1.538,1.538,0,0,0-.307-.317l0-.005a3.877,3.877,0,0,0-.945-.528l-.04-.015a15.489,15.489,0,0,0-3.85-.965c-.624-.095-1.116-.155-1.347-.18-.644-.518-1.508-2.574-1.649-5.726l.005.011s.718-1.669,1.669-1.146c1.483.809,4.347-2.468,3.433-6.775a12.131,12.131,0,0,0-.352-1.277,2.657,2.657,0,0,0,.985.241c.859,0,2.161-2.2,2.337-2.94s-.015-3.167-1.2-3.886c-1.151-.708-2.976.106-3.056.136.588-.824,2.6-.659,2.965-.618-4.694-.975-5.664,2.036-5.745,2.307-2.985-2.7-7.544,1.965-8.665,3.212-.075.065-.151.135-.226.211a3.22,3.22,0,0,0-.844.754,3.849,3.849,0,0,0-.774,2.493,8.843,8.843,0,0,0,.592,2.98c.272,2.609,1.026,5.841,2.232,5.936,0,0,.427,0,1.071-.05,0,.03.005.055.005.085.02.437.035.93.04,1.423v.3c.005,1.312-.076,2.558-.372,2.714-.1.01-.186.016-.261.025-.121.006-.347.036-.347.036-1.045.135-1.789.241-2.317.332a3.051,3.051,0,0,0-1.563.5,1.988,1.988,0,0,0-.181.191,11.96,11.96,0,0,0-3.393,4.453,19.179,19.179,0,0,0,23.849.749A25.593,25.593,0,0,0,957.6,3099.187Z" fill="#fd822f"/>
    <path id="Path_2315" data-name="Path 2315" d="M938.618,2702.876a19.177,19.177,0,1,0,19.177-19.177A19.081,19.081,0,0,0,938.618,2702.876Z" fill="#fff"/>
    <path id="Path_2316" data-name="Path 2316" d="M760.65,3366.07c-23.929,4.907-75.505-13.89-75.505-13.89l8.319-80.35-58.282,66.747c-29.659-11.037-76.046-39.84-103.607-57.763,70.626-7.7,123.358-77.4,123.358-77.4,48.959,26.518,104.223,42.011,104.223,42.011C759.139,3293.176,760.65,3366.07,760.65,3366.07Z" fill="#c3d9ea"/>
    <path id="Path_2317" data-name="Path 2317" d="M743.233,3347.167a17.4,17.4,0,0,0-9.376,2.739,25.142,25.142,0,1,0-5.807,23.457,17.5,17.5,0,1,0,15.183-26.2Z" fill="#c3d9ea"/>
    <circle id="Ellipse_26" data-name="Ellipse 26" cx="25.203" cy="25.203" r="25.203" transform="translate(547.139 3276.837)" fill="#c3d9ea"/>
    <path id="Path_2318" data-name="Path 2318" d="M555.157,3276.145c-20.947,5.541-37.164,4.73-49.912,1.569a25.2,25.2,0,0,0,25.2,25.2C545.968,3302.9,555.157,3290.064,555.157,3276.145Z" fill="#c3d9ea"/>
    <circle id="Ellipse_27" data-name="Ellipse 27" cx="25.203" cy="25.203" r="25.203" transform="translate(589.317 3298.947)" fill="#c3d9ea"/>
    <path id="Path_2319" data-name="Path 2319" d="M596.436,3293.089a9.7,9.7,0,1,1,9.611,9.79A9.7,9.7,0,0,1,596.436,3293.089Z" fill="#ffc315"/>
    <g id="Group_445" data-name="Group 445">
      <path id="Path_2320" data-name="Path 2320" d="M957.795,2714.269a11.43,11.43,0,0,1-11.358-11.393,11.116,11.116,0,0,1,.719-3.979l6.643,13.374c.087.176.193.315.4.315a.44.44,0,0,0,.4-.315l3.05-6.854c.035-.07.07-.14.14-.14s.105.07.14.14l3.05,6.854a.44.44,0,0,0,.4.315c.211,0,.316-.139.4-.315l6.643-13.374a11.137,11.137,0,0,1,.718,3.979A11.431,11.431,0,0,1,957.795,2714.269Zm0-13.97c-.07,0-.1-.07-.14-.14l-3.576-8.028a10.976,10.976,0,0,1,7.432,0l-3.576,8.028C957.9,2700.229,957.865,2700.3,957.795,2700.3Zm-3.628,8.238c-.07,0-.1-.07-.14-.14l-5.785-11.656a11.758,11.758,0,0,1,4.084-3.839l4.155,9.255a.292.292,0,0,0,.315.211h2a.293.293,0,0,0,.316-.211l4.154-9.255a11.75,11.75,0,0,1,4.084,3.839l-5.784,11.656c-.035.07-.07.14-.14.14s-.106-.07-.141-.14l-2.173-4.978a.293.293,0,0,0-.316-.21h-2a.292.292,0,0,0-.315.21l-2.174,4.978C954.272,2708.467,954.237,2708.537,954.167,2708.537Zm3.628,6.889a12.55,12.55,0,1,0-12.55-12.55A12.537,12.537,0,0,0,957.795,2715.426Z" fill="#6886bd"/>
    </g>
  </g>
</svg>
