<svg xmlns="http://www.w3.org/2000/svg" width="421.742" height="604.632" viewBox="0 0 421.742 604.632">
  <g id="Group_454" data-name="Group 454" transform="translate(-1055.247 -2881.89)">
    <path id="Path_2804" data-name="Path 2804" d="M1435.054,3435.349H1203.818c-11.088-7.434-68.673-46.713-92.5-76-5.046-6.207-23.517-59.687-37.711-103.108-8.861-27.121-16.059-50.333-17.275-55.655a69.337,69.337,0,0,1-.875-10.505v-.05c-.6-17.758.221-52,1.071-79.2l.005-.126.015-.357c.04-1.2.075-2.372.116-3.538v-.041c.005-.115.005-.236.01-.351.156-4.725.306-9.178.447-13.229.357-10.123.658-17.738.784-20.718l.05-1.388a.016.016,0,0,0,.01,0c.367-.206,11.49-6.142,26.358,4.569,3.589,2.589,6.906,8.841,9.931,17,1.936,5.207,3.75,11.188,5.439,17.491,6.494,24.242,11.153,53.223,13.641,60.983,4.011,12.541,51.287,67.688,54.243,71.116.045.06.095.115.14.171v-87.089l-35.691-95.5-14.651-39.2-7.363-19.7a355.231,355.231,0,0,1-20.769-40.849,192.837,192.837,0,0,1-10.3-30.2c-.563-2.372-1.041-4.719-1.423-7.017v-.01c-1.392-8.419-1.488-16.229.448-22.587,3.453-11.324,11.233-13.456,17.209-13.224.618.02,1.217.075,1.795.14a12.23,12.23,0,0,1,1.718.332,12.02,12.02,0,0,1,2.971,1.236c.01,0,.01.006.015.011a12.032,12.032,0,0,1,3.88,3.629s5.047,6.589,11.817,15.445c4.453,5.83,9.656,12.641,14.651,19.2,8.9,11.7,17.16,22.608,19.432,25.8,12.279,17.285,45.341,73.614,45.341,73.614l38.7,1.623a25.672,25.672,0,0,1,16.451,6.886c13.762,12.852,43.431,40.662,47.07,44.8,0,1.355,23.058,12.442,40.869,22.316,12.74,5.384,36.942,24.463,36.942,24.463,5.016,4.428,8.836,8.836,10.771,13.048,8.3,18.059,30.806,175.123,41.567,252.768C1432.631,3417.3,1434.878,3434.057,1435.054,3435.349Z" fill="#fc9e61"/>
    <path id="Path_2805" data-name="Path 2805" d="M1196.8,3026.439s35.853,58.526,40.6,61.162,23.2,6.327,25.309,0S1196.8,3026.439,1196.8,3026.439Z" fill="#f58e53"/>
    <path id="Path_2806" data-name="Path 2806" d="M1377.011,3126.69c-.061-.053-.12-.107-.181-.161,0,0-24.2-19.079-36.942-24.463-16.353-9.065-37.125-19.152-40.418-21.792,3.8,4.339,30.5,34.557,40.773,36.822C1349.266,3119.085,1369.76,3124.69,1377.011,3126.69Z" fill="#f58e53"/>
    <path id="Path_2807" data-name="Path 2807" d="M1167.714,3242.409v-87.092s20.69,34.609,22.271,53.59S1181.391,3258.612,1167.714,3242.409Z" fill="#f58e53"/>
    <path id="Path_2808" data-name="Path 2808" d="M1092.648,2922.822c-3.027-5.187-11.26-19.446-13.123-24.707-.527-1.488-.46-4.464,1.368-7.636a17.242,17.242,0,0,1,5.429-5.635,17.983,17.983,0,0,1,3.81-2.054,14.813,14.813,0,0,1,4.876-.9,5.178,5.178,0,0,1,4.165,2.421c.006,0,.009.017.015.022a239.443,239.443,0,0,1,14.041,23.655c2.141,4.454,1.465,9.6-1.653,11.855l-1.454,1.065-7.45,5.439C1099.575,2928.6,1095.112,2927.063,1092.648,2922.822Z" fill="#fd1a16"/>
    <path id="Path_2809" data-name="Path 2809" d="M1092.648,2922.822c-3.027-5.187-11.26-19.446-13.123-24.707-.527-1.488-.46-4.464,1.368-7.636.486-.405,1.009-.791,1.576-1.175a17.979,17.979,0,0,1,3.809-2.054,14.817,14.817,0,0,1,4.877-.9,5.177,5.177,0,0,1,4.165,2.421c.006,0,.009.017.015.022a239.566,239.566,0,0,1,14.041,23.654,11.451,11.451,0,0,1,.746,8.461l-7.45,5.439C1099.575,2928.6,1095.112,2927.063,1092.648,2922.822Z" fill="#c2000b"/>
    <path id="Path_2810" data-name="Path 2810" d="M1318.878,3399.587l-69.075,35.762h-45.985c-11.088-7.434-68.673-46.713-92.5-76-5.046-6.207-23.517-59.687-37.711-103.108v-.02c1.885,5.765,41.5,90.13,52.775,99.72s70.5,65.421,86.853,64.853c15.842-.543,100.183-19.954,105.41-21.155C1318.722,3399.628,1318.8,3399.608,1318.878,3399.587Z" fill="#f58e53"/>
    <path id="Path_2811" data-name="Path 2811" d="M1476.989,3460.973l-254,25.549-18.911-51.031c12.49-4.9,65.032-23.3,114.566-35.848.08-.015.155-.035.236-.056,42.542-10.761,86.335-17.285,110.119-7.5l.171.257Z" fill="#cbdbeb"/>
    <path id="Path_2812" data-name="Path 2812" d="M1056.668,3106.417a.018.018,0,0,0,.016-.006c4.2-1.539,10.09-2.554,12.955,2.234,4.461,7.45-12.114,73.17-14.184,81.438Z" fill="#f58e53"/>
    <path id="Path_2813" data-name="Path 2813" d="M1057.954,3064.9l-1.425,45.936s8.358,1.36,13.111-2.187S1071.876,3064.429,1057.954,3064.9Z" fill="#c2000b"/>
  </g>
</svg>
