<svg xmlns="http://www.w3.org/2000/svg" width="96.995" height="96.996" viewBox="0 0 96.995 96.996">
  <g id="Group_446" data-name="Group 446" transform="translate(-593.176 -2715.431)">
    <path id="Path_2322" data-name="Path 2322" d="M690.171,2763.929a48.5,48.5,0,1,1-48.5-48.5A48.251,48.251,0,0,1,690.171,2763.929Z" fill="#fff"/>
    <path id="Path_2323" data-name="Path 2323" d="M661.159,2786.852c-.131-.146-.256-.282-.377-.407-.558-.427-1.116-.694-3.357-1.081-1.141-.191-2.725-.417-4.971-.709,0,0-.483-.055-.739-.075-.171-.015-.352-.03-.563-.05-.643-.337-.809-3.006-.8-5.821,0-.211.005-.422.005-.633.01-1.065.045-2.116.085-3.061,0-.06.005-.115.005-.176,1.388.116,2.307.106,2.307.106,2.584-.206,4.2-7.132,4.775-12.732a18.867,18.867,0,0,0,1.277-6.393,8.257,8.257,0,0,0-1.659-5.343,7.114,7.114,0,0,0-1.814-1.628c-.161-.161-.327-.307-.488-.448-2.4-2.668-12.173-12.671-18.587-6.886-.166-.578-2.251-7.071-12.364-4.945.628-.066,5.112-.488,6.408,1.327-.176-.076-4.091-1.815-6.559-.3a5.968,5.968,0,0,0-2.252,3.654c-.005.01-.005.02-.01.03s-.005.015-.005.026v0a.159.159,0,0,0-.01.046c-.045.206-.095.412-.141.618-.005.03-.015.06-.02.095,0,.011-.005.015-.005.026v.01a10.535,10.535,0,0,0-.12,3.83c.377,1.583,3.166,6.3,5.016,6.3a5.536,5.536,0,0,0,2.111-.517,23.281,23.281,0,0,0-.754,2.744c-1.965,9.243,4.177,16.265,7.358,14.526,2.041-1.111,3.584,2.458,3.584,2.458l.01-.016c-.3,6.761-2.156,11.174-3.533,12.274-.493.056-1.558.186-2.89.4v0a33.525,33.525,0,0,0-8.258,2.065.585.585,0,0,0-.086.035,8.523,8.523,0,0,0-2.025,1.126c-.006.01-.011.015-.016.015v.006a2.965,2.965,0,0,0-.653.678,1.656,1.656,0,0,0-.211.307,55.442,55.442,0,0,0-3.544,9.685,41.135,41.135,0,0,0,51.152-1.6A25.72,25.72,0,0,0,661.159,2786.852Z" fill="#060b33"/>
  </g>
</svg>
