<svg xmlns="http://www.w3.org/2000/svg" width="96.995" height="96.996" viewBox="0 0 96.995 96.996">
  <g id="Group_500" data-name="Group 500" transform="translate(-2853.341 -7508.176)">
    <g id="Group_105" data-name="Group 105">
      <path id="Path_447" data-name="Path 447" d="M2950.336,7556.674a48.5,48.5,0,1,1-48.5-48.5A48.252,48.252,0,0,1,2950.336,7556.674Z" fill="#fff"/>
    </g>
    <path id="Path_448" data-name="Path 448" d="M2912.426,7576.64l-3.784-3.35c-.314.065-.629.119-.943.173a25.753,25.753,0,0,0-2.211-1.377c.248-1.529.455-2.949.628-4.207a67.957,67.957,0,0,0,.64-7.471c2-.1,3.361-.314,3.361-.314,3.8-.878,3.979-13.835,3.1-20.59a4.845,4.845,0,0,0,2.114-.4c2.873-1.268,3.036-5.616,3.036-5.616a5.086,5.086,0,0,1-2.06,2.049s4.8-6.581-.77-11.081c-5.551-4.51-11.222-1.561-14.453-1.366-7.091.434-11.677.856-13.987,5.519-2.288,4.6-1.388,17.24,2.993,21.891.075.434.151.857.206,1.291a8.676,8.676,0,0,0,1.735,4.131,28.985,28.985,0,0,1-5.248,12.208,19.024,19.024,0,0,0-3.774,4.066c-.032.022-.075.055-.075.055a.086.086,0,0,1,.032.01,41.144,41.144,0,0,0-5.3,11.634c-.011.022-.011.044-.022.066a38.987,38.987,0,0,0,7.492,4.12c.174.076.348.141.521.217.044.011.076.032.119.043.282.119.575.228.857.336.694.271,1.388.521,2.092.748.738.239,1.486.456,2.234.651.347.087.694.174,1.041.249.3.076.607.141.922.2l.13.032c.206.043.412.076.618.119.477.087.965.174,1.452.249.109.012.228.033.337.044.271.043.531.076.8.108l1.138.131c.423.043.857.075,1.291.1.4.033.813.054,1.225.065s.856.022,1.29.022c.466,0,.922-.011,1.388-.022a.446.446,0,0,0,.119-.011c.109,0,.228,0,.337-.011.228,0,.455-.01.683-.032a.23.23,0,0,1,.087-.011c.433-.022.856-.054,1.289-.1a40.828,40.828,0,0,0,15.484-4.685A43.156,43.156,0,0,0,2912.426,7576.64Z" fill="#060b33"/>
  </g>
</svg>
