<svg xmlns="http://www.w3.org/2000/svg" xmlns:xlink="http://www.w3.org/1999/xlink" width="1347.839" height="791.81" viewBox="0 0 1347.839 791.81">
  <defs>
    <linearGradient id="linear-gradient" x1="0.268" y1="1" x2="0.268" gradientUnits="objectBoundingBox">
      <stop offset="0.01" stop-color="#39acce" stop-opacity="0"/>
      <stop offset="0.118" stop-color="#39acce" stop-opacity="0.027"/>
      <stop offset="0.259" stop-color="#39acce" stop-opacity="0.106"/>
      <stop offset="0.416" stop-color="#39acce" stop-opacity="0.235"/>
      <stop offset="0.586" stop-color="#39acce" stop-opacity="0.412"/>
      <stop offset="0.766" stop-color="#39acce" stop-opacity="0.643"/>
      <stop offset="0.952" stop-color="#39acce" stop-opacity="0.922"/>
      <stop offset="1" stop-color="#39acce"/>
    </linearGradient>
    <clipPath id="clip-path">
      <path id="Path_2935" data-name="Path 2935" d="M1081.466,620.431c31.843,1.137,42.484-23.6,42.484-36.583s-15.341-24.783-18.882-50.745-7.08-31.863-17.7-31.863-50.718,9.427-50.718,59.005C1036.649,593.288,1048.423,619.251,1081.466,620.431Z" fill="none"/>
    </clipPath>
    <linearGradient id="linear-gradient-2" x1="1.673" y1="1.129" x2="1.69" y2="0.39" gradientUnits="objectBoundingBox">
      <stop offset="0" stop-color="#fff"/>
      <stop offset="1" stop-color="#41b2a2" stop-opacity="0"/>
    </linearGradient>
    <clipPath id="clip-path-2">
      <path id="Path_2938" data-name="Path 2938" d="M167,616.743c45.755,1.634,61.045-33.914,61.045-52.567S206,528.566,200.913,491.261s-10.174-45.784-25.435-45.784S102.6,459.023,102.6,530.262C102.6,577.742,119.52,615.047,167,616.743Z" fill="none"/>
    </clipPath>
    <linearGradient id="linear-gradient-3" x1="0" y1="0.5" x2="1" y2="0.5" xlink:href="#linear-gradient-2"/>
    <linearGradient id="linear-gradient-4" y1="0.5" x2="1" y2="0.5" gradientUnits="objectBoundingBox">
      <stop offset="0" stop-color="#060b33"/>
      <stop offset="0.232" stop-color="#081038"/>
      <stop offset="0.53" stop-color="#0d2048"/>
      <stop offset="0.863" stop-color="#173a62"/>
      <stop offset="1" stop-color="#1c4870"/>
    </linearGradient>
    <linearGradient id="linear-gradient-5" x1="0.486" y1="0.104" x2="0.528" y2="0.841" gradientUnits="objectBoundingBox">
      <stop offset="0" stop-color="#060b33"/>
      <stop offset="1" stop-color="#41b2a2" stop-opacity="0"/>
    </linearGradient>
    <linearGradient id="linear-gradient-6" x1="0.5" y1="1" x2="0.5" gradientUnits="objectBoundingBox">
      <stop offset="0" stop-color="#41b2a2" stop-opacity="0"/>
      <stop offset="1" stop-color="#060b33"/>
    </linearGradient>
    <linearGradient id="linear-gradient-8" x1="0.501" y1="0.249" x2="0.497" y2="0.726" gradientUnits="objectBoundingBox">
      <stop offset="0.157" stop-color="#060b33"/>
      <stop offset="1" stop-color="#41b2a2" stop-opacity="0"/>
    </linearGradient>
    <linearGradient id="linear-gradient-10" x1="1.313" y1="0.153" x2="0.023" y2="0.832" gradientUnits="objectBoundingBox">
      <stop offset="0" stop-color="#1c4870"/>
      <stop offset="1" stop-color="#060b33"/>
    </linearGradient>
    <linearGradient id="linear-gradient-12" x1="0.486" y1="0.463" x2="-4.549" y2="1.172" xlink:href="#linear-gradient-10"/>
    <linearGradient id="linear-gradient-13" x1="1.321" y1="0.407" x2="-4.034" y2="1.054" xlink:href="#linear-gradient-10"/>
    <linearGradient id="linear-gradient-14" x1="4.159" y1="0.221" x2="-8.598" y2="1.316" xlink:href="#linear-gradient-10"/>
    <linearGradient id="linear-gradient-15" x1="0.5" y1="1" x2="0.5" gradientUnits="objectBoundingBox">
      <stop offset="0" stop-color="#060b33"/>
      <stop offset="1" stop-color="#39acce"/>
    </linearGradient>
    <linearGradient id="linear-gradient-16" x1="0.5" y1="1" x2="0.5" gradientUnits="objectBoundingBox">
      <stop offset="0" stop-color="#d9d8d0"/>
      <stop offset="1" stop-color="#fff"/>
    </linearGradient>
    <linearGradient id="linear-gradient-17" x1="0.5" y1="1" x2="0.5" y2="0" xlink:href="#linear-gradient-4"/>
    <linearGradient id="linear-gradient-19" x1="0.003" y1="0.732" x2="0.912" y2="0.356" xlink:href="#linear-gradient-2"/>
    <linearGradient id="linear-gradient-20" y1="0.5" x2="1" y2="0.5" gradientUnits="objectBoundingBox">
      <stop offset="0" stop-color="#d9d8d0"/>
      <stop offset="1" stop-color="#060b33"/>
    </linearGradient>
    <linearGradient id="linear-gradient-26" x1="5.261" y1="0.5" x2="6.261" y2="0.5" gradientUnits="objectBoundingBox">
      <stop offset="0" stop-color="#1c4870" stop-opacity="0"/>
      <stop offset="0.037" stop-color="#1a446c" stop-opacity="0.059"/>
      <stop offset="0.409" stop-color="#0f244c" stop-opacity="0.576"/>
      <stop offset="0.741" stop-color="#081139" stop-opacity="0.89"/>
      <stop offset="1" stop-color="#060b33"/>
    </linearGradient>
    <linearGradient id="linear-gradient-27" y1="0.5" x2="1" y2="0.5" gradientUnits="objectBoundingBox">
      <stop offset="0" stop-color="#1c4870"/>
      <stop offset="0.433" stop-color="#133058"/>
      <stop offset="1" stop-color="#060b33"/>
    </linearGradient>
    <linearGradient id="linear-gradient-28" x1="0" y1="0.5" x2="1" y2="0.5" xlink:href="#linear-gradient-5"/>
    <linearGradient id="linear-gradient-30" x1="0.5" y1="1" x2="0.5" gradientUnits="objectBoundingBox">
      <stop offset="0" stop-color="#ffc315"/>
      <stop offset="1" stop-color="#7d3d05"/>
    </linearGradient>
    <linearGradient id="linear-gradient-31" x1="0" y1="0.5" x2="1" y2="0.5" xlink:href="#linear-gradient-30"/>
    <linearGradient id="linear-gradient-32" x1="2.86" y1="0.5" x2="3.86" y2="0.5" xlink:href="#linear-gradient-26"/>
    <linearGradient id="linear-gradient-33" x1="18.49" x2="18.49" y2="1" gradientUnits="objectBoundingBox">
      <stop offset="0" stop-color="#39acce"/>
      <stop offset="1" stop-color="#060b33"/>
    </linearGradient>
  </defs>
  <g id="Group_498" data-name="Group 498" transform="translate(-32.427 -162.855)">
    <g id="Group_497" data-name="Group 497">
      <g id="Group_496" data-name="Group 496">
        <g id="LANDSCAP">
          <circle id="Ellipse_30" data-name="Ellipse 30" cx="93.543" cy="93.543" r="93.543" transform="translate(299.382 198.49)" fill="#ffc315"/>
          <path id="Path_2931" data-name="Path 2931" d="M858.091,162.855c-179.908,0-331.746,120.1-379.779,284.484a262.906,262.906,0,0,0-101.3-20.188c-145.669,0-263.757,118.088-263.757,263.757S231.344,954.665,377.013,954.665A263.353,263.353,0,0,0,588.724,848.22a394.205,394.205,0,0,0,269.367,105.9c218.5,0,395.633-177.131,395.633-395.633S1076.593,162.855,858.091,162.855Z" fill="url(#linear-gradient)"/>
          <path id="Path_2932" data-name="Path 2932" d="M102.758,812.134c73.853-10.617,1098.881-165.788,1098.881-165.788-77.777,0-948.506-63.778-1111.162,2.047C-3.891,686.582,28.905,822.752,102.758,812.134Z" fill="#48aa2d"/>
          <g id="Group_479" data-name="Group 479">
            <rect id="Rectangle_183" data-name="Rectangle 183" width="4.431" height="30.573" transform="translate(1078.316 618.358)" fill="#340e14"/>
            <path id="Path_2933" data-name="Path 2933" d="M1081.466,620.431c31.843,1.137,42.484-23.6,42.484-36.583s-15.341-24.783-18.882-50.745-7.08-31.863-17.7-31.863-50.718,9.427-50.718,59.005C1036.649,593.288,1048.423,619.251,1081.466,620.431Z" fill="#48aa2d"/>
            <g id="Group_478" data-name="Group 478">
              <g id="Group_477" data-name="Group 477" clip-path="url(#clip-path)">
                <path id="Path_2934" data-name="Path 2934" d="M1134.342,570.453s-113.589-.956-85.529-94.732S1190.806,530.7,1134.342,570.453Z" opacity="0.3" fill="url(#linear-gradient-2)"/>
              </g>
            </g>
          </g>
          <g id="Group_482" data-name="Group 482">
            <path id="Path_2936" data-name="Path 2936" d="M167,616.743c45.755,1.634,61.045-33.914,61.045-52.567S206,528.566,200.913,491.261s-10.174-45.784-25.435-45.784S102.6,459.023,102.6,530.262C102.6,577.742,119.52,615.047,167,616.743Z" fill="#48aa2d"/>
            <rect id="Rectangle_184" data-name="Rectangle 184" width="6.367" height="43.93" transform="translate(162.473 613.764)" fill="#340e14"/>
            <g id="Group_481" data-name="Group 481">
              <g id="Group_480" data-name="Group 480" clip-path="url(#clip-path-2)">
                <path id="Path_2937" data-name="Path 2937" d="M162.575,435.73s-51.51,127.165,66.8,180.285S275.253,437.34,275.253,437.34Z" opacity="0.2" fill="url(#linear-gradient-3)"/>
              </g>
            </g>
          </g>
        </g>
        <g id="car">
          <path id="Path_2939" data-name="Path 2939" d="M942.608,811.668,694.313,844.4,677.06,858.257s-129.466,7.207-178.13,5.028S222.2,843.675,222.2,843.675l93.7-7.264,227.677-25.722,203.037-12.773Z" fill="url(#linear-gradient-4)"/>
          <path id="Path_2940" data-name="Path 2940" d="M960.383,737.985s4.431-88.157-22.622-86.291-36.15,86.991-36.15,86.991Z" fill="#060b33"/>
          <path id="Path_2941" data-name="Path 2941" d="M226.149,796.44s9.44,44.217,74.275,42.975,64.836-54.9,64.836-54.9Z" fill="#060b33"/>
          <path id="Path_2942" data-name="Path 2942" d="M927.823,816.6c-23.143-.042-40.5,3.643-48.856-20.142S860.679,695.7,873.776,680.461s71.917-38.1,84.3,10.716S970.459,816.674,927.823,816.6Z" fill="#060b33"/>
          <path id="Path_2943" data-name="Path 2943" d="M733.028,759.292c-.278,29.327-8.108,96.915-55.968,98.965-56.894,2.437-73.907-8.976-75.233-83.84-.91-51.4,25.5-105.836,67.263-109.343S733.495,710.082,733.028,759.292Z" fill="#060b33"/>
          <path id="Path_2944" data-name="Path 2944" d="M625.523,773.7s1.386,35.562-6.784,41.606c-11.324,8.378-224.882-3.2-224.882-3.2s-172.627-6.232-183.443-20.865-9.7-71.952,4.136-109.84,36.568-62.236,36.568-62.236,15.158-25.072,54.693-32.979c20.1-5.271,555.457-89.13,555.457-89.13s29.34,8.082,44.166,26.2,44.807,79.071,44.807,79.071,16.143,42.83,17.461,84.342-2.809,58.577-2.809,58.577S956.543,671.8,945,658.115c-14.163-16.8-31.694,20.383-35.438,39.236-7.138,35.951-.956,71.8-.956,71.8L728.456,802.526Z" fill="#41b2a2"/>
          <path id="Path_2945" data-name="Path 2945" d="M485.51,643.612s134.764-30.2,142.233-28.576,14.938,9.417,14.938,9.417-10.067,23.381-31.175,31.174-86.379,14.938-95.8,12.34-36.046-16.886-36.046-16.886l-86.35,1.843,1.888-8.389Z" fill="#fff"/>
          <path id="Path_2946" data-name="Path 2946" d="M362.065,644.325,289.5,640.55s-40.478-13.633-38.381-21.393c-9.647,10.067-22.86,28.523-23.909,33.347.629,5.453,3.566,7.131,12.165,9.019a125.028,125.028,0,0,0,19.924,2.726c2.307,0,30.62-15.52,30.62-15.52L357.87,652.5S359.758,647.051,362.065,644.325Z" fill="#fff"/>
          <path id="Path_2947" data-name="Path 2947" d="M622.872,624.128,491.68,649.133s21.432,11.04,30.524,12.015,56.5-.928,80.859-11.366C616.7,643.937,622.872,624.128,622.872,624.128Z" fill="#d9d8d0"/>
          <path id="Path_2948" data-name="Path 2948" d="M283.367,645.751s-35.2-11.664-35.734-17.708c-8.165,6.786-17.39,18.238-13.891,22.161s18.557,7.741,25.237,6.787S283.367,645.751,283.367,645.751Z" fill="#d9d8d0"/>
          <path id="Path_2949" data-name="Path 2949" d="M564.745,634.844a18.39,18.39,0,0,0-2.274,12.34c1.3,6.82,9.742,9.417,9.742,9.417l16.237-2.922a18.528,18.528,0,0,0,1.948-11.366c-.974-6.495-7.144-10.716-7.144-10.716Z" fill="#fff"/>
          <path id="Path_2950" data-name="Path 2950" d="M265.023,638.964s1.484,10.074-9.755,9.332-6.257-9.968-4.984-11.558a18.072,18.072,0,0,1,4.559-3.288S262.372,638.964,265.023,638.964Z" fill="#fff"/>
          <path id="Path_2951" data-name="Path 2951" d="M727.664,724.775s-7.8-76.381-45.011-73.464c-74.918,5.873-56.71,133.928-56.71,133.928Z" fill="#060b33"/>
          <path id="Path_2952" data-name="Path 2952" d="M679.928,579.422s47.718-77.818,70.147-90.7,58.784-12.2,110.779,9.113c28.012,38.854,44.667,67.056,44.667,67.056s-13.1,12.658-17.321,13.1-58.626,6.662-69.951,7.55-63.955,8.217-76.835,6.884S679.928,579.422,679.928,579.422Z" fill="#060b33"/>
          <path id="Path_2953" data-name="Path 2953" d="M346.744,569.54S435.672,501.9,485.8,486.106s145.58-18.884,180.6-19.228,108.276,5.065,108.276,5.065L639.965,544.132Z" fill="#060b33"/>
          <path id="Path_2954" data-name="Path 2954" d="M704.745,646.865s42.26,39.269,27.609,132.164c95.373-24.768,169.748-38.9,169.748-38.9s10.663-100.561,39.128-101.092c26.491-.055,25.939,45.171,26.629,52.478,1.1-25.921-10.411-66.981-10.411-66.981l-2.411-.028-9.223-21.927s-43.415,4.779-97.006,13.651S704.745,646.865,704.745,646.865Z" opacity="0.3" fill="url(#linear-gradient-5)"/>
          <path id="Path_2955" data-name="Path 2955" d="M726.715,798.966s7.467-.417,8.262-1.53,10.5-16.224,22.268-22.268,64.1-18.768,88.275-22.9,37.219-9.384,45.649,5.249c3.022,4.613,4.771,12.725,4.771,12.725l12.455-1.183-1.639,2.773s-16.224,3.817-35.31,7-103.545,16.7-110.225,18.132-25.908,5.23-35.611,6.662Z" fill="#060b33"/>
          <path id="Path_2956" data-name="Path 2956" d="M947.061,595.725s-3.938.4-3.938,1.313S955.037,624.5,955.037,624.5h3.736s-2.221-17.77-5.856-23.223S947.061,595.725,947.061,595.725Z" fill="#060b33"/>
          <path id="Path_2957" data-name="Path 2957" d="M941.259,638.846c15.167-1.1,34.046,19.573,23.909,99.922-53.6,15.661-61.507,30.038-61.507,30.038l-3.718.159S907.228,641.313,941.259,638.846Z" opacity="0.3" fill="url(#linear-gradient-6)"/>
          <path id="Path_2958" data-name="Path 2958" d="M553.33,746.691c6.949-.977,14.963-1.435,16.6,10.659s3.28,22.342,1.435,33.206-8.4,10.659-20.7,11.684-104.948,5.129-156.808,3.079-130.981-8.409-175.666-18.453c-7.994-2.049-7.584-7.994-7.994-12.913s0-27.057.615-33.412,4.51-6.354,10.044-4.714,41.406,14.143,54.524,15.783,38.331,5.33,84.451,6.56,91.625,2.664,108.228,1.024S540.211,748.536,553.33,746.691Z" fill="#060b33"/>
          <path id="Path_2959" data-name="Path 2959" d="M365.532,726.595c56.486,1.434,83.038-.483,124.557-6.276s73.038-16.377,80.63,5.249,10.812,46.011,10.352,60.735-2.07,23.236-37.5,24.386S208.378,786.3,208.378,786.3s-3.451-27.377-.921-51.763.921-33.588,18.175-29.907S297.23,724.861,365.532,726.595Z" opacity="0.2" fill="url(#linear-gradient-6)"/>
          <path id="Path_2960" data-name="Path 2960" d="M647.337,658.825s-74.7,24.887-178.618,28.28-220.98.424-249.4-19.935c-2.969,11.028-11.452,30.963-11.452,64.046s201.046,27.57,201.046,27.57l211.224-22.48S633.383,676.965,647.337,658.825Z" opacity="0.2" fill="url(#linear-gradient-8)"/>
          <g id="Path_2961" data-name="Path 2961" fill="#060b33" stroke-miterlimit="10">
            <path d="M 370.8316345214844 671.0593872070313 C 370.5592041015625 671.0593872070313 370.2840270996094 671.0537719726563 370.0137634277344 671.042724609375 C 367.623291015625 670.9453735351563 365.4505920410156 670.4452514648438 363.5562744140625 669.5563354492188 C 361.5711975097656 668.6248779296875 359.9344787597656 667.2897338867188 358.6914978027344 665.5879516601563 C 356.6950988769531 662.8546752929688 354.7942810058594 657.8548583984375 357.0762939453125 649.5577392578125 C 357.6376037597656 647.5161743164063 358.7559204101563 645.4384765625 360.4000549316406 643.382568359375 C 361.9318542480469 641.4672241210938 363.89794921875 639.6273803710938 366.0857849121094 638.06201171875 C 368.3656921386719 636.4307861328125 370.8019409179688 635.1351928710938 373.3269348144531 634.2113037109375 C 376.078369140625 633.2045288085938 378.7992248535156 632.6940307617188 381.4138793945313 632.6940307617188 C 381.6510009765625 632.6940307617188 381.8902587890625 632.6983642578125 382.1249694824219 632.7069091796875 C 385.050048828125 632.8134765625 387.6683959960938 633.453369140625 389.9075927734375 634.60888671875 C 392.1511535644531 635.7666625976563 393.9152221679688 637.3828125 395.1507873535156 639.4124145507813 C 396.3971862792969 641.4597778320313 397.0260009765625 643.7952270507813 397.019775390625 646.3538818359375 C 397.0136108398438 648.8958740234375 396.3740234375 651.5343017578125 395.1187438964844 654.1958618164063 C 393.9562072753906 656.6605834960938 392.4632873535156 658.9710083007813 390.6814575195313 661.06298828125 C 388.9530029296875 663.0923461914063 386.9869079589844 664.87744140625 384.8377990722656 666.36865234375 C 382.6898498535156 667.8590698242188 380.4122009277344 669.0194091796875 378.0680541992188 669.8174438476563 C 375.6474914550781 670.6415405273438 373.2127990722656 671.0593872070313 370.8316345214844 671.0593872070313 Z" stroke="none"/>
            <path d="M 381.4138793945313 634.9536743164063 C 371.6432800292969 634.9536743164063 361.2021179199219 643.0753173828125 359.2550048828125 650.156982421875 C 356.0390014648438 661.8499755859375 361.2439880371094 668.4240112304688 370.1059875488281 668.7849731445313 C 370.3477783203125 668.7948608398438 370.5888977050781 668.7997436523438 370.8316345214844 668.7997436523438 C 379.486083984375 668.7997436523438 388.6773376464844 662.5555419921875 393.0750122070313 653.2319946289063 C 397.5960083007813 643.64599609375 392.7200012207031 635.35400390625 382.0429992675781 634.9650268554688 C 381.8335571289063 634.9573974609375 381.6240539550781 634.9536743164063 381.4138793945313 634.9536743164063 M 381.4138793945313 630.4344482421875 C 381.6781616210938 630.4344482421875 381.9449768066406 630.439208984375 382.2068786621094 630.44873046875 C 385.4673767089844 630.5675048828125 388.4066772460938 631.2916259765625 390.94384765625 632.6008911132813 C 393.5246887207031 633.9326782226563 395.6468505859375 635.8817749023438 397.0809020996094 638.2374267578125 C 398.5263061523438 640.6116943359375 399.2865295410156 643.4202270507813 399.2794189453125 646.3593139648438 C 399.2724304199219 649.2352294921875 398.5601806640625 652.1961669921875 397.1624755859375 655.1597290039063 C 395.9147338867188 657.8051147460938 394.31298828125 660.2841796875 392.4017028808594 662.5281372070313 C 390.5467834472656 664.7059936523438 388.435302734375 666.6227416992188 386.1259765625 668.2251586914063 C 383.805419921875 669.8353271484375 381.3393249511719 671.0907592773438 378.7962951660156 671.9564819335938 C 376.1407470703125 672.860595703125 373.4610290527344 673.3189697265625 370.8316345214844 673.3189697265625 C 370.5282897949219 673.3189697265625 370.2220458984375 673.312744140625 369.9214172363281 673.3004760742188 C 367.2291564941406 673.1907958984375 364.7644653320313 672.6193237304688 362.5963745117188 671.6019287109375 C 360.2638244628906 670.5074462890625 358.3361511230469 668.9324340820313 356.8667907714844 666.9207763671875 C 354.5769653320313 663.7857666015625 352.3765563964844 658.1246337890625 354.8975524902344 648.9585571289063 C 356.1308898925781 644.472900390625 359.7296142578125 639.831298828125 364.7709350585938 636.2243041992188 C 367.2166442871094 634.4744262695313 369.8340454101563 633.083251953125 372.5504760742188 632.0892944335938 C 375.5514526367188 630.9912109375 378.5335388183594 630.4344482421875 381.4138793945313 630.4344482421875 Z" stroke="none" fill="#060b33"/>
          </g>
          <path id="Path_2962" data-name="Path 2962" d="M532.14,593.023s-149.365,28.04-172.012,32.893-37.746,12.941-16.177,38.824l18.873,22.647s135.345,3.235,198.434-8.627,212.094-49.9,287.55-62.535c44.808-7.5,97.006-13.651,97.006-13.651l-2.691-5.536,3.938-1.313s-43.8-73.738-53.913-80.2-23.884-18.47-32.87-19.312C867.86,506.325,532.14,593.023,532.14,593.023Z" opacity="0.2" fill="url(#linear-gradient-3)"/>
          <path id="Path_2963" data-name="Path 2963" d="M352.15,569.241s73.165-53.494,138.393-82.139c53.838-6.212,139.773-13.114,238.477-5.176-13.114,12.079-59.237,74.349-64.759,90.569-29.68.346-166.816,3.3-192.009,2.958S352.15,569.241,352.15,569.241Z" fill="url(#linear-gradient-10)"/>
          <path id="Path_2964" data-name="Path 2964" d="M639.622,478.209s-36.4,4.807-57.683,14.764-109.687,82.48-109.687,82.48l188.089-5.177s20.139-33.011,39.367-55.329,29.312-33.021,29.312-33.021Z" opacity="0.2" fill="url(#linear-gradient-3)"/>
          <path id="Path_2965" data-name="Path 2965" d="M838.457,579.993s45.524-4.441,47.3-5.107,15.989-11.325,15.989-11.325l-41.97-61.513s-26.2-10.659-54.629-15.1c5.108,8.66,16.433,30.2,21.541,46.856S838.457,579.993,838.457,579.993Z" fill="url(#linear-gradient-12)"/>
          <path id="Path_2966" data-name="Path 2966" d="M793.378,485.615s-36.863-4.663-53.3,18.432c-.889,18.875-8.439,83.053-8.439,83.053s35.309,0,63.067-2.665l27.758-2.665s-3.553-31.089-10.659-50.631S793.378,485.615,793.378,485.615Z" fill="url(#linear-gradient-13)"/>
          <path id="Path_2967" data-name="Path 2967" d="M731.2,519.369c3.553.445-5.552,60.18-5.552,60.18s-31.755-5.107-31.755-8.66S731.2,519.369,731.2,519.369Z" fill="url(#linear-gradient-14)"/>
          <path id="Path_2968" data-name="Path 2968" d="M671.434,580.247c-3.808,2.077-74.94,11.081-217.819,11.081s-164.967,1.381-137.7-13.459,86.97-7.248,150.472-6.9,207.761-4.831,208.106.69A11.08,11.08,0,0,1,671.434,580.247Z" fill="#060b33"/>
          <path id="Path_2969" data-name="Path 2969" d="M660.341,570.276s58.73-94.926,89.9-97.471,58.578-1.747,118.463,24.3c21.673,8.745,43.726,30.608,45.817,33.459s32.535,65.162,32.535,65.162-30.824-51.854-35.387-57.747-12.582-22.823-24.714-29.658c-13.5-7.6-49.049-28.516-89.923-31.748s-49.429,3.8-66.159,22.053S672.7,580.373,672.7,580.373Z" fill="#060b33"/>
          <path id="Path_2970" data-name="Path 2970" d="M940.037,668.1c10.071,0,24.856,21.213,24.856,77.141s-16.714,66.427-22.285,66.427-26.142-6.643-26.142-77.57S940.037,668.1,940.037,668.1Z" fill="url(#linear-gradient-15)"/>
          <path id="Path_2971" data-name="Path 2971" d="M940.037,677.528c9.857,0,22.071,18.428,22.5,64.07s-11.357,61.713-21,61.713-22.5-22.285-22.5-69S933.18,677.528,940.037,677.528Z" fill="url(#linear-gradient-16)"/>
          <path id="Path_2972" data-name="Path 2972" d="M937.093,680.337c.427-.5,3.232-2.252,4.9-1.175s3.134,12.536,4.212,14.3,13.123,15.767,13.515,16.943,1.861,14.005,1.665,15.278-3.428,10.675-3.428,11.948-.588,41.721-.881,43.092-3.526,9.3-4.31,9.3-4.505-5.386-5.68-5.386-14.1,11.85-14.984,11.85-3.624-5.778-3.624-6.464.49-18.216.49-19.391-8.423-36.335-8.423-36.825.49-12.144.686-14.592,1.763-3.036,3.232-3.526,3.33-1.175,4.309-4.995S935.917,681.708,937.093,680.337Z" fill="url(#linear-gradient-17)"/>
          <path id="Path_2973" data-name="Path 2973" d="M935.232,734.3c2.638-.176,2.644,5.876,2.644,6.856s-.2,5.68-2.35,5.876-2.449-5.876-2.351-7.639S933.763,734.4,935.232,734.3Z" fill="url(#linear-gradient-16)"/>
          <path id="Path_2974" data-name="Path 2974" d="M693.892,570.889S800.173,498.8,872.333,521.9c25.5,35.119,29.413,41.666,29.413,41.666l-15.989,11.325-63.289,6.884-48.754,6.513-49.069-.962S694.89,579.953,693.892,570.889Z" opacity="0.2" fill="url(#linear-gradient-19)"/>
          <g id="Group_483" data-name="Group 483">
            <path id="Path_2975" data-name="Path 2975" d="M861.137,496.753c-51.995-21.311-88.516-21.795-110.945-8.915s-70.264,91.584-70.264,91.584,48.606,11.675,61.486,13.007,65.51-6,76.835-6.884,65.732-7.106,69.951-7.55,17.321-13.1,17.321-13.1S889.149,535.606,861.137,496.753ZM693.892,570.889c0-3.553,37.307-51.52,37.307-51.52,3.553.444-5.552,60.18-5.552,60.18S693.892,574.442,693.892,570.889ZM794.71,584.435c-27.758,2.665-62.58-3.518-62.58-3.518s7.063-57.995,7.952-76.87c16.433-23.1,53.3-18.432,53.3-18.432S804.7,511.6,811.809,531.139s10.659,50.631,10.659,50.631Zm91.047-9.549c-1.776.666-47.3,5.108-47.3,5.108s-6.662-29.535-11.769-46.19-16.433-38.2-21.541-46.856c28.425,4.441,54.629,15.1,54.629,15.1l41.97,61.513S887.534,574.22,885.757,574.886Z" fill="#060b33"/>
          </g>
          <path id="Path_2976" data-name="Path 2976" d="M672.7,580.373l7.224-.951s26.046-42.4,41.445-60.836,28.995-39.138,62.927-38.212c41.824,1.141,69.39,11.787,99.618,28.707,6.654,3.422,16.23,11.749,16.23,11.749s-1.79-9.1-32.968-23.355-48.366-21.8-83.157-21.988-41.928,8.879-63.031,35.3S672.7,580.373,672.7,580.373Z" fill="#d9d8d0"/>
          <path id="Path_2977" data-name="Path 2977" d="M736.905,599.455l10.876-10.876c1.74-1.74,3.045-5.438,3.045-5.438l66.344-1.958a11.816,11.816,0,0,1-7.614,8.266c-6.525,2.393-6.308,4.568-38.5,5.221-5.22,3.7-17.4,13.486-18.706,14.138s-7.4.871-8.266,0S736.905,599.455,736.905,599.455Z" fill="#060b33"/>
          <path id="Path_2978" data-name="Path 2978" d="M817.17,581.183l2.175-6.525-69.389,1.74a58.727,58.727,0,0,1,.87,6.743C755.394,583.141,817.17,581.183,817.17,581.183Z" fill="url(#linear-gradient-20)"/>
          <path id="Path_2979" data-name="Path 2979" d="M749.956,576.4s5.192-15.324,19.577-16.272c20.447-1.347,40.676-1.565,49.812,14.532C805.206,575.093,749.956,576.4,749.956,576.4Z" fill="#d9d8d0"/>
          <g id="Group_484" data-name="Group 484">
            <path id="Path_2980" data-name="Path 2980" d="M382.043,634.965c10.677.389,15.553,8.681,11.032,18.267s-14.107,15.915-22.969,15.553-14.067-6.935-10.851-18.628C361.244,642.923,372.1,634.6,382.043,634.965Z" fill="none" stroke="#fff" stroke-miterlimit="10" stroke-width="2.26"/>
            <path id="Path_2981" data-name="Path 2981" d="M374.164,635.983l.322,12.242,1.611.107,12.027-11.705" fill="none" stroke="#fff" stroke-miterlimit="10" stroke-width="2.26"/>
            <path id="Path_2982" data-name="Path 2982" d="M364.606,641.889l1.933,21.047,6.873-10.846h1.718l.967,10.846s9.014-11.209,18.04-20.3" fill="none" stroke="#fff" stroke-miterlimit="10" stroke-width="2.26"/>
          </g>
          <path id="Path_2983" data-name="Path 2983" d="M678.234,635.678c32.513-3.613,66.644,58.145,54.12,143.351-65.078,21.692-115.62-10.064-115.62-10.064S627.916,641.268,678.234,635.678Z" opacity="0.3" fill="url(#linear-gradient-6)"/>
          <path id="Path_2984" data-name="Path 2984" d="M678.016,853.476c32.51-.7,53.556-41.442,53.556-96.911s-29.647-88.3-51.962-86.39-53.555,27.734-52.6,88.941S648.369,854.113,678.016,853.476Z" fill="url(#linear-gradient-15)"/>
          <path id="Path_2985" data-name="Path 2985" d="M677.707,682.635c33.967-.871,48.813,46.42,48.813,75.612s-12.442,82.791-44.506,83.748-49.77-45.942-47.855-89.012S659.044,683.114,677.707,682.635Z" fill="url(#linear-gradient-16)"/>
          <path id="Path_2986" data-name="Path 2986" d="M643.072,732.242c4.808-1.651,7.867-1.475,10.326-6.556s17.374-35.894,18.521-38.353,1.639-1.967,4.589-2.458,7.376-1.476,9.015,2.95,3.933,14.259,5.245,15.243,25.732,19.34,27.044,20.324,1.639.819,2.622,4.753a118,118,0,0,1,2.225,12.493c.254,2.412-.888,3.809-1.777,5.269s-5.46,11.236-5.523,12.569-1.652,52.481-2.128,55.022-5.4,9.689-7.466,11.754-4.289.477-6.2-1.429-4.606-5.718-9.213-3.495S665.1,832.4,663.2,833.353s-2.7,0-5.083-2.382-6.353-4.448-5.718-10.643,1.589-15.725,1.589-17.949-3.336-9.53-6.99-19.7-10.642-27.8-10.642-28.909.794-12.708,1.588-16.043S639.627,733.425,643.072,732.242Z" fill="url(#linear-gradient-17)"/>
          <path id="Path_2987" data-name="Path 2987" d="M674.632,754.885c4.75-.38,4.289,9.213,4.289,9.213s-.477,6.036-4.448,6.036-4.447-8.26-4.447-8.895S670.661,755.2,674.632,754.885Z" fill="url(#linear-gradient-16)"/>
        </g>
      </g>
      <g id="MEN">
        <path id="Path_2988" data-name="Path 2988" d="M1041.372,827.317s160.085,1.181,163.745,1.181,5.032-2.648-4.575-6.308-34.766-12.808-39.8-15.553-14.181-3.66-26.99-3.66H1065.18L1039,811.05Z" fill="url(#linear-gradient-26)"/>
        <path id="Path_2989" data-name="Path 2989" d="M931.848,608.515c-6.012,1.224-13.49.947-16.31,1.4s-4.9.381-3.919,6.423,2.428,12.423,2.689,14.034,1.328,3.092,7.9,2.853,15.983-3.419,18-3.746,4.236-1.927,3.386-7.164S941.853,606.479,931.848,608.515Z" fill="url(#linear-gradient-27)"/>
        <g id="Group_486" data-name="Group 486">
          <g id="Group_485" data-name="Group 485">
            <path id="Path_2990" data-name="Path 2990" d="M1038.979,805.037s.587,5.785,10.983,7.532,40.066-3.783,41.639-4.567-.084-4.406-.084-4.406Z" fill="#d9d8d0"/>
            <path id="Path_2991" data-name="Path 2991" d="M1065.312,786.867s-4.966,10.258-11.612,11.5-13.811,2.328-14.733,3.974-1.239,7.844,11.844,6.88,40.706-5.622,40.706-5.622-.853-7.209-4.006-12.27S1065.312,786.867,1065.312,786.867Z" fill="#39acce"/>
            <path id="Path_2992" data-name="Path 2992" d="M985.125,812.095s-.587,7.039,11.438,11.439,48.687,4.4,50.74,3.812.88-5.279.88-5.279Z" fill="#d9d8d0"/>
            <path id="Path_2993" data-name="Path 2993" d="M1020.613,796.257S1012.4,807.4,1004.189,807.4s-17.011-.294-18.477,1.466-3.227,9.092,12.611,10.852,49.86,2.346,49.86,2.346.586-8.8-2.053-15.544S1020.613,796.257,1020.613,796.257Z" fill="#39acce"/>
            <path id="Path_2994" data-name="Path 2994" d="M1001.782,819.6s29.171,2.173,32.274-24.516,10.552,9.31,10.552,9.31,4.357,6.794,3.575,17.672C1033.746,821.463,1001.782,819.6,1001.782,819.6Z" opacity="0.3" fill="url(#linear-gradient-28)"/>
            <path id="Path_2995" data-name="Path 2995" d="M1074.089,782.672s5.9,18.62-14.586,25.758c7.759-.621,32.014-4.834,32.014-4.834s-.826-9.513-4.006-12.27S1074.089,782.672,1074.089,782.672Z" opacity="0.3" fill="url(#linear-gradient-28)"/>
          </g>
          <path id="Path_2996" data-name="Path 2996" d="M995.1,615.3s-1.173,35.782,6.746,71.27,17.3,47.807,17.89,73.323.88,36.368.88,36.368,11.439,10.266,25.517,10.266c1.466-5.573,3.226-37.248,2.053-51.326s-10.559-25.517-7.039-52.207c5.572,12.612,17.3,47.514,17.891,58.659s4.986,28.449,4.986,28.449,9.972,4.693,24.05-.88c-2.933-7.332-7.333-28.449-7.333-38.421s-7.332-34.608-12.611-47.22-7.626-17.3-7.333-34.022,2.933-65.111,2.933-65.111Z" fill="#060b33"/>
          <path id="Path_2997" data-name="Path 2997" d="M1078.628,542.266l-13.917,40.4-16.162-16.162,11.672-30.977Z" fill="#e4b17c"/>
          <path id="Path_2998" data-name="Path 2998" d="M991.577,470.409s-3.812-7.918-5.572-7.332-4.693,2.346-6.453,2.346-7.625-10.265-9.385-11.145-3.226-5.865-3.226-7.919-1.467-5.572-3.226-6.159-.587-12.318-.587-12.318,42.527.293,42.527,24.93c.88,2.053,4.4,5.866,4.4,5.866Z" fill="#e4b17c"/>
          <path id="Path_2999" data-name="Path 2999" d="M954.623,426.122c-1.2,2.818,2.932,7.919,5.279,8.212s5.572.294,6.746,3.52,1.173-4.4,5.572-2.64,5.279,7.039,4.106,10.266,4.106,3.812,9.679,4.986,16.424,1.466,19.65,2.346,2.64-22.584,2.64-27.57-7.039-23.17-21.41-22.876S959.609,414.391,954.623,426.122Z" fill="#060b33"/>
          <path id="Path_3000" data-name="Path 3000" d="M970.214,574.4s-9.635,44.251-12.148,45.927-12.356,2.99-16.386,8.632-5.441,9.27-3.426,10.479a4.144,4.144,0,0,0,4.03,0s0,1.411.806,1.814,2.217-.806,2.822-.4,1.612,2.216,2.418,2.418,1.612-1.209,2.418-1.008,1.612,2.016,2.62,2.217,4.635-2.217,7.657-5.642,7.054-13.5,6.852-15.92,20.474-37.533,20.474-37.533Z" fill="#e4b17c"/>
          <path id="Path_3001" data-name="Path 3001" d="M929.671,613.066c-1.579-1.722-6.008,2-5.674,8.344s3.672,6.342,6.676,6.342,10.013-1.335,11.348,4.005a4.7,4.7,0,0,0,2.336-4.339s-2.67-4.005-4.673-5.006S933.343,617.071,929.671,613.066Z" fill="#d9d8d0"/>
          <path id="Path_3002" data-name="Path 3002" d="M957.041,636.43s23.749,13.529,20.36,40.721c-14.34,115.036,109.811,122.647,115.873,71.561" fill="none" stroke="#ffc315" stroke-miterlimit="10" stroke-width="4.519"/>
          <path id="Path_3003" data-name="Path 3003" d="M1052.822,481.022c-15.818-19.438-35.728-18.825-37.2-18.825s-4.692-5.866-7.039-6.159c-5.279.293-21.117,19.651-21.41,21.7s-.88,2.053-.587,6.745.294,5.866-2.053,7.626c-10.558,7.626-9.678,71.27-9.385,72.443s-7.332,6.16-7.039,7.919,19.064,12.612,20.237,12.905,4.693-6.746,4.693-6.746L990.991,615a335.973,335.973,0,0,0,43.114,1.759c23.463-.586,33.142-9.092,37.248-12.611-6.452-15.838-10.265-51.62-9.972-58.952,12.905,0,18.184-3.519,19.944-5.279C1081.325,539.92,1060.98,491.048,1052.822,481.022Z" fill="#ffc315"/>
          <path id="Path_3004" data-name="Path 3004" d="M993.044,578.634s8.625-21.173,8.625-25.646V530.067l20.127,80.784s-14.369,6.346-30.8,4.152C991.886,604.143,993.044,578.634,993.044,578.634Z" opacity="0.3" fill="url(#linear-gradient-30)"/>
          <path id="Path_3005" data-name="Path 3005" d="M1061.381,545.2s13.783,1.219,19.944-5.279c-5.3-12.648-22.911-55.137-31.017-61.846C1053.662,494.287,1060.155,506.382,1061.381,545.2Z" opacity="0.3" fill="url(#linear-gradient-31)"/>
        </g>
      </g>
    </g>
    <g id="BORNE">
      <path id="Path_3006" data-name="Path 3006" d="M1178.731,862.237H1377.5c3.66,0,5.032-2.648-4.574-6.308s-34.767-12.809-39.8-15.553-14.181-3.66-26.989-3.66H1203.673Z" fill="url(#linear-gradient-32)"/>
      <path id="Path_3007" data-name="Path 3007" d="M1150.151,532.053s-10.064-1.829-10.064,12.809v37.511l-23.787-2.745V538.915l5.031-7.319,11.437-1.83Z" fill="#3492a8"/>
      <path id="Path_3008" data-name="Path 3008" d="M1179.56,526.991h28.179c2.9,0,9.116,3.315,9.116,16.161V842.346c0,9.945-3.315,14.5-13.675,16.576s-24.449,3.315-24.449,3.315l10.9-12.841-.122-314.946Z" fill="#39acce"/>
      <path id="Path_3009" data-name="Path 3009" d="M1190.443,568.418l-73.92,3.267L1115.3,843.679l6.943,7.76,55.542,7.76,11.844-9.8Z" fill="#060b33"/>
      <g id="Path_3010" data-name="Path 3010" fill="none" stroke-miterlimit="10">
        <path d="M1178.2,532.479c6.126.409,10.2,4.492,10.2,12.66s-2.45,293.23-2.45,301.4-5.309,12.252-11.435,11.027-43.29-6.943-49.416-8.576-6.535-3.676-6.535-14.294-.408-285.879-.408-292.822,5.309-8.984,12.252-8.984S1178.2,532.479,1178.2,532.479Z" stroke="none"/>
        <path d="M 1178.204956054688 532.47900390625 C 1178.204956054688 532.47900390625 1137.35205078125 532.8880004882813 1130.409057617188 532.8880004882813 C 1123.465942382813 532.8880004882813 1118.156982421875 534.9299926757813 1118.156982421875 541.8720092773438 C 1118.156982421875 548.8150024414063 1118.56494140625 824.074951171875 1118.56494140625 834.6939697265625 C 1118.56494140625 845.3119506835938 1118.973999023438 847.35400390625 1125.099975585938 848.9879760742188 C 1131.225952148438 850.6209716796875 1168.390014648438 856.3389892578125 1174.515991210938 857.5640258789063 C 1175.232788085938 857.7073364257813 1175.937255859375 857.7779541015625 1176.62451171875 857.7779541015625 C 1181.810546875 857.7779541015625 1185.951049804688 853.7493286132813 1185.951049804688 846.5369873046875 C 1185.951049804688 838.3690185546875 1188.401000976563 553.3070068359375 1188.401000976563 545.1389770507813 C 1188.401000976563 536.9710083007813 1184.3310546875 532.8880004882813 1178.204956054688 532.47900390625 M 1178.343139648438 527.603271484375 L 1178.529663085938 527.61572265625 C 1182.980102539063 527.912841796875 1186.7080078125 529.6841430664063 1189.310302734375 532.7382202148438 C 1191.941162109375 535.8258666992188 1193.275146484375 539.9981079101563 1193.275146484375 545.1389770507813 C 1193.275146484375 549.2433471679688 1192.652221679688 623.7883911132813 1192.049926757813 695.8790893554688 C 1191.447875976563 767.9494018554688 1190.8251953125 842.4733276367188 1190.8251953125 846.5369873046875 C 1190.8251953125 851.1720581054688 1189.463745117188 855.1656494140625 1186.888061523438 858.0860595703125 C 1184.291259765625 861.030517578125 1180.646240234375 862.6520385742188 1176.62451171875 862.6520385742188 C 1175.614990234375 862.6520385742188 1174.584106445313 862.5482177734375 1173.560302734375 862.3435668945313 C 1171.363647460938 861.9042358398438 1164.79541015625 860.8277587890625 1157.18994140625 859.581298828125 C 1140.606689453125 856.8634643554688 1127.621459960938 854.7044677734375 1123.844482421875 853.6976318359375 C 1121.667846679688 853.1170043945313 1120.121826171875 852.4826049804688 1118.8310546875 851.6403198242188 C 1117.124389648438 850.5267944335938 1115.852172851563 849.0048828125 1115.049560546875 847.1167602539063 C 1113.7822265625 844.135498046875 1113.690795898438 840.4346923828125 1113.690795898438 834.6939697265625 C 1113.690795898438 828.8261108398438 1113.565307617188 741.5037841796875 1113.45458984375 664.4608764648438 C 1113.362426757813 600.3487548828125 1113.282836914063 544.9796142578125 1113.282836914063 541.8720092773438 C 1113.282836914063 539.4066162109375 1113.782958984375 537.193359375 1114.769165039063 535.2937622070313 C 1115.75732421875 533.3903198242188 1117.210205078125 531.8275756835938 1119.087524414063 530.6488037109375 C 1121.911499023438 528.8757934570313 1125.61474609375 528.0138549804688 1130.409057617188 528.0138549804688 C 1137.24853515625 528.0138549804688 1177.747802734375 527.6091918945313 1178.156127929688 527.6051025390625 L 1178.343139648438 527.603271484375 Z" stroke="none" fill="#d9d8d0"/>
      </g>
      <rect id="Rectangle_185" data-name="Rectangle 185" width="15.111" height="7.351" transform="translate(1145.928 617.426)" fill="#0b3a6a"/>
      <path id="Path_3011" data-name="Path 3011" d="M1175.741,666.849l-.81,100.854-45.332-4.071.9-98.759Z" fill="url(#linear-gradient-33)"/>
      <line id="Line_309" data-name="Line 309" x1="45.199" y1="1.858" transform="translate(1130.773 687.861)" fill="none" stroke="#060b33" stroke-miterlimit="10" stroke-width="4.969"/>
      <line id="Line_310" data-name="Line 310" x1="45.199" y1="1.858" transform="translate(1130.773 713.019)" fill="none" stroke="#060b33" stroke-miterlimit="10" stroke-width="4.969"/>
      <line id="Line_311" data-name="Line 311" x1="45.199" y1="1.858" transform="translate(1130.773 738.176)" fill="none" stroke="#060b33" stroke-miterlimit="10" stroke-width="4.969"/>
      <g id="Path_3012" data-name="Path 3012" fill="none" stroke-miterlimit="10">
        <path d="M1169.22,626.819c3.918.184,6.521,2.019,6.521,5.69s-1.567,130.575-1.567,134.246-3.395,5.507-7.313,4.956-26.467-1.9-30.385-2.636-5.4-1.652-5.4-6.425.958-126.052.958-129.172,3.4-6.475,7.835-6.475S1169.22,626.819,1169.22,626.819Z" stroke="none"/>
        <path d="M 1169.219970703125 626.8189697265625 C 1169.219970703125 626.8189697265625 1144.31201171875 627.0029907226563 1139.870971679688 627.0029907226563 C 1135.431030273438 627.0029907226563 1132.036010742188 630.3569946289063 1132.036010742188 633.47802734375 C 1132.036010742188 636.5980224609375 1131.078002929688 757.8779907226563 1131.078002929688 762.6500244140625 C 1131.078002929688 767.4229736328125 1132.557983398438 768.3410034179688 1136.475952148438 769.0750122070313 C 1140.39404296875 769.8090209960938 1162.942993164063 771.1599731445313 1166.860961914063 771.7109985351563 C 1167.3193359375 771.7754516601563 1167.770629882813 771.8072509765625 1168.210205078125 771.8072509765625 C 1171.526977539063 771.8072509765625 1174.173950195313 769.9965209960938 1174.173950195313 766.7550048828125 C 1174.173950195313 763.083984375 1175.740966796875 636.1799926757813 1175.740966796875 632.5089721679688 C 1175.740966796875 628.8380126953125 1173.137939453125 627.0029907226563 1169.219970703125 626.8189697265625 M 1169.292236328125 623.1627197265625 L 1169.391479492188 623.1674194335938 C 1172.214477539063 623.2999877929688 1174.530639648438 624.0969848632813 1176.275634765625 625.5361938476563 C 1178.3173828125 627.2200927734375 1179.396606445313 629.6312255859375 1179.396606445313 632.5089721679688 C 1179.396606445313 634.3663940429688 1179.015869140625 666.0897827148438 1178.61279296875 699.6758422851563 C 1178.227783203125 731.7623901367188 1177.82958984375 764.94140625 1177.82958984375 766.7550048828125 C 1177.82958984375 769.41015625 1176.72314453125 771.7542114257813 1174.71435546875 773.3553466796875 C 1172.984497070313 774.734130859375 1170.7353515625 775.462890625 1168.210205078125 775.462890625 C 1167.599365234375 775.462890625 1166.974243164063 775.4185180664063 1166.351928710938 775.3309936523438 C 1164.771728515625 775.1087036132813 1159.3115234375 774.7000122070313 1154.031127929688 774.3046875 C 1144.774169921875 773.6117553710938 1138.048217773438 773.0887451171875 1135.802856445313 772.6680908203125 C 1133.720947265625 772.278076171875 1131.356079101563 771.70849609375 1129.639770507813 769.8761596679688 C 1127.674438476563 767.7779541015625 1127.42236328125 764.9122314453125 1127.42236328125 762.6500244140625 C 1127.42236328125 759.9974975585938 1127.717163085938 721.4913940429688 1127.977294921875 687.5181274414063 C 1128.1845703125 660.4376220703125 1128.38037109375 634.85888671875 1128.38037109375 633.47802734375 C 1128.38037109375 630.8756713867188 1129.656372070313 628.2664184570313 1131.880859375 626.3193359375 C 1134.070556640625 624.40283203125 1136.908203125 623.347412109375 1139.870971679688 623.347412109375 C 1144.247924804688 623.347412109375 1168.944091796875 623.1653442382813 1169.192993164063 623.1634521484375 L 1169.292236328125 623.1627197265625 Z" stroke="none" fill="#0b3a6a"/>
      </g>
      <path id="Path_3013" data-name="Path 3013" d="M1114.446,588.811c-6.215,0-24.155,7.145-23.9,45.892.2,30.5,6.446,88.592.653,120.014" fill="none" stroke="#ffc315" stroke-miterlimit="10" stroke-width="4.519"/>
    </g>
  </g>
</svg>
