<svg xmlns="http://www.w3.org/2000/svg" xmlns:xlink="http://www.w3.org/1999/xlink" width="637.536" height="881.214" viewBox="0 0 637.536 881.214">
  <defs>
    <linearGradient id="linear-gradient" y1="0.5" x2="1" y2="0.5" gradientUnits="objectBoundingBox">
      <stop offset="0" stop-color="#ffc315"/>
      <stop offset="1" stop-color="#7d3d05"/>
    </linearGradient>
  </defs>
  <g id="Group_319" data-name="Group 319" transform="translate(-427.538 -7343.643)">
    <path id="Path_1285" data-name="Path 1285" d="M949.541,7718.2s-48.124,96.272-97.007,162.727c-19.45,26.45-39.021,48.172-55.725,57.232-16.351,8.865-30.192,22.64-41.646,37.9-29.664,39.519-43.354,89-43.354,89l-125-189.11s4.265-184.856,19.273-215.778c21.875-45.061,32.441-136.107,40.845-154.232,6.234-13.447,24.037-82.9,25.744-88.008.742-2.2,6.666-5.572,14.358-5.565,6.174,0,16.655,5.966,19.3,18.228,13.367,61.977-2.723,102.858-2.54,104.675,4.715,47.631-9.461,82.989.48,92.352.37.347,1.057.182,2.029-.437,17.232-11.065,124.186-166.993,137.359-170.359C857.571,7453.279,949.541,7718.2,949.541,7718.2Z" fill="#fc9e61"/>
    <path id="Path_1286" data-name="Path 1286" d="M749.415,8027.636s-1.7,84.037-6.576,197.221h-315.3c72.072-153.692,134.73-283.049,134.73-283.049S741.8,7947.291,749.415,8027.636Z" fill="#ffc315"/>
    <path id="Path_1287" data-name="Path 1287" d="M1058.829,7392.385l-38.709,56.747-37.985,55.689a8.693,8.693,0,0,1-7.9,3.487c-9.115-.865-20.393-14.012-29.182-21.291l-.892-.732a27.42,27.42,0,0,1-3.639-38.5l58.057-70.18v-.006l17.22-20.812a27.419,27.419,0,0,1,38.5-3.64l.892.732A27.426,27.426,0,0,1,1058.829,7392.385Z" fill="#fc9e61"/>
    <path id="Path_1288" data-name="Path 1288" d="M1020.12,7449.132l-37.985,55.689a8.693,8.693,0,0,1-7.9,3.487l24.344-130.7C998.635,7378.34,1002.774,7436.983,1020.12,7449.132Z" fill="#f58e53"/>
    <path id="Path_1289" data-name="Path 1289" d="M852.534,7880.929c-19.45,26.45-39.021,48.172-55.725,57.232-16.351,8.865-30.192,22.64-41.646,37.9-13.175-6.141-28.192-13.347-42.871-20.481-17.874-8.687-18.56-34.068-1.053-43.474.172-.092.339-.185.5-.279,16.406-9.387,33.217-42.533,33.217-42.533Z" fill="#f58e53"/>
    <path id="Path_1290" data-name="Path 1290" d="M671.8,7420.81,661.674,7461.7s8.853,3.622,14.54.81S686.539,7423.011,671.8,7420.81Z" fill="#fcaf7b"/>
    <g id="Group_291" data-name="Group 291">
      <rect id="Rectangle_109" data-name="Rectangle 109" width="295.685" height="556.607" rx="39.465" transform="translate(706.33 7343.643)" fill="#060b33"/>
      <g id="Group_290" data-name="Group 290">
        <path id="Path_1291" data-name="Path 1291" d="M987.361,7386.279v467.613a28.821,28.821,0,0,1-28.63,28.84H749.612a28.817,28.817,0,0,1-28.625-28.84V7386.279a28.817,28.817,0,0,1,28.625-28.84H958.731A28.821,28.821,0,0,1,987.361,7386.279Z" fill="#b9cfe4"/>
        <path id="Path_1292" data-name="Path 1292" d="M958.731,7357.439,752.2,7882.732h-2.587a28.817,28.817,0,0,1-28.625-28.84V7386.279a28.817,28.817,0,0,1,28.625-28.84Z" fill="#c3d9ea"/>
      </g>
      <path id="Rectangle_110" data-name="Rectangle 110" d="M13.962,0H99.327a13.962,13.962,0,0,1,13.962,13.962v0A13.962,13.962,0,0,1,99.327,27.924H13.961A13.961,13.961,0,0,1,0,13.962v0A13.962,13.962,0,0,1,13.962,0Z" transform="translate(797.53 7346.905)" fill="#1d277c"/>
    </g>
    <g id="Group_292" data-name="Group 292">
      <path id="Path_1293" data-name="Path 1293" d="M1039.56,7606.682l-5.773,2.194-38.817,14.751a24.751,24.751,0,0,1-2.751.872A26.513,26.513,0,0,1,960.87,7608.3l-.569-1.49a26.517,26.517,0,0,1,15.322-34.107l36.188-13.75,2.629-1,5.773-2.194a26.511,26.511,0,0,1,34.1,15.323l.569,1.491A26.516,26.516,0,0,1,1039.56,7606.682Z" fill="#fc9e61"/>
      <path id="Path_1294" data-name="Path 1294" d="M1008.037,7607.573c-6.478,2.455-18.207,6.811-24.479,7.712-1.774.256-5.045-.709-8.1-4.051a23.945,23.945,0,0,1-4.882-8.806,28,28,0,0,1-1.326-5.619,23.731,23.731,0,0,1,.213-6.684,6.673,6.673,0,0,1,3.7-4.768c.008-.007.022-.007.029-.014a153.11,153.11,0,0,1,23.542-9.231c5.449-1.5,10.962.9,12.687,5.669l.815,2.228,4.166,11.409C1016.132,7600.158,1013.33,7605.579,1008.037,7607.573Z" fill="#fdc69f"/>
      <path id="Path_1295" data-name="Path 1295" d="M1008.037,7607.573c-6.478,2.455-18.207,6.811-24.479,7.712-1.774.256-5.045-.709-8.1-4.051-.326-.76-.624-1.561-.908-2.42a28.011,28.011,0,0,1-1.327-5.619,23.727,23.727,0,0,1,.213-6.684,6.672,6.672,0,0,1,3.7-4.768c.007-.007.021-.007.028-.014a153.07,153.07,0,0,1,23.543-9.231,11.158,11.158,0,0,1,9.528,1.511l4.166,11.409C1016.132,7600.158,1013.33,7605.579,1008.037,7607.573Z" fill="#fcaf7b"/>
    </g>
    <g id="Group_293" data-name="Group 293">
      <path id="Rectangle_111" data-name="Rectangle 111" d="M17.138,0H48.164A17.139,17.139,0,0,1,65.3,17.139v3.511A17.141,17.141,0,0,1,48.163,37.791H17.141A17.141,17.141,0,0,1,0,20.65V17.138A17.138,17.138,0,0,1,17.138,0Z" transform="translate(965.546 7637.444) rotate(-15.23)" fill="#fc9e61"/>
      <path id="Path_1296" data-name="Path 1296" d="M1005.76,7659.787c-5.5,1.469-15.44,4.059-20.648,4.343-1.9.106-5.691-1.5-8.167-6.479a22.646,22.646,0,0,1-2.2-8.62,17.105,17.105,0,0,1,.667-5.123,5.3,5.3,0,0,1,3.384-3.42.133.133,0,0,0,.029-.014,133.692,133.692,0,0,1,19.994-5.577c4.577-.8,8.919,1.4,9.991,5.172l.773,2.7,2.306,8.1C1012.954,7654.607,1010.251,7658.6,1005.76,7659.787Z" fill="#fdc69f"/>
      <path id="Path_1297" data-name="Path 1297" d="M1005.76,7659.787c-5.5,1.469-15.44,4.059-20.648,4.343-1.9.106-5.691-1.5-8.167-6.479a19.024,19.024,0,0,1-.6-4.129,17.181,17.181,0,0,1,.667-5.123,5.321,5.321,0,0,1,3.384-3.42c.015-.007.022-.007.029-.014a132.977,132.977,0,0,1,19.995-5.57c3.789-.667,7.421.731,9.167,3.37l2.306,8.1C1012.954,7654.607,1010.251,7658.6,1005.76,7659.787Z" fill="#fcaf7b"/>
    </g>
    <path id="Path_1298" data-name="Path 1298" d="M531.573,8005.569s61.614,59.012,103.15,81.8l31.448-22.305v32.9s61.848,10.937,81.357,0v-89.734l-173.715-87.084Z" opacity="0.3" fill="url(#linear-gradient)"/>
    <path id="Path_1299" data-name="Path 1299" d="M760.65,8090.824c-23.929,4.907-75.505-13.891-75.505-13.891l8.319-80.35-58.282,66.747c-29.659-11.037-76.046-39.839-103.607-57.762-13.722-8.928-22.78-15.154-22.78-15.154,38.892-62.585,78.015-121.12,78.015-121.12,11.483,22.971,38.661,42.919,68.123,58.874,48.959,26.518,104.223,42.01,104.223,42.01C759.139,8017.93,760.65,8090.824,760.65,8090.824Z" fill="#d7e4f0"/>
    <g id="Group_294" data-name="Group 294">
      <path id="Path_1300" data-name="Path 1300" d="M614.352,8023.761a25.039,25.039,0,0,0-17.139,6.757,25.132,25.132,0,0,0-42.7-21.257,25.136,25.136,0,1,0-6.391,10.973,25.129,25.129,0,0,0,41.347,25.131,25.133,25.133,0,1,0,24.883-21.6Z" fill="#d7e4f0"/>
      <path id="Path_1301" data-name="Path 1301" d="M743.233,8071.92a17.4,17.4,0,0,0-9.376,2.74,25.143,25.143,0,1,0-5.807,23.456,17.5,17.5,0,1,0,15.183-26.2Z" fill="#d7e4f0"/>
    </g>
    <g id="Group_295" data-name="Group 295">
      <path id="Path_1302" data-name="Path 1302" d="M1038.615,7549.313c-.213.078-.426.149-.645.22l-39.245,10.075c-17.256,4.435-35.1-4.9-39.656-20.747l-2.334-8.117c-4.378-15.212,5.03-31.12,21.066-36.278l12.956-3.328,26.288-6.748c17.256-4.434,35.1,4.9,39.656,20.747l2.334,8.117C1063.349,7528.261,1054.253,7543.934,1038.615,7549.313Z" fill="#fc9e61"/>
      <path id="Path_1303" data-name="Path 1303" d="M1020.631,7538.357l-19.065,8.593c-.028.007-.064.014-.12.028a20.618,20.618,0,0,1-2.306.476c-.32.049-.646.085-.966.12a2.656,2.656,0,0,1-.4.007,3.032,3.032,0,0,1-2.632-4.285,18.963,18.963,0,0,0,1.078-12.928l-.454-1.66a.126.126,0,0,0-.014-.05l-1.476-5.414a20.3,20.3,0,0,0-6.911-10.536c-.39-.32-.8-.617-1.206-.9a5.477,5.477,0,0,1,1.6-9.749c.043-.014.078-.022.121-.036l20.924-3.165c5.173-1.4,10.154,2.576,11.566,7.749l1.681,6.166,3.576,13.147C1027.031,7531.1,1025.8,7536.953,1020.631,7538.357Z" fill="#fd1a16"/>
      <path id="Path_1304" data-name="Path 1304" d="M1020.631,7538.357l-19.065,8.593c-.028.007-.064.014-.12.028-.448.085-1.846.32-3.676.6a3.032,3.032,0,0,1-2.632-4.285,18.963,18.963,0,0,0,1.078-12.928l-.454-1.66a.126.126,0,0,0-.014-.05l-1.476-5.414a20.3,20.3,0,0,0-6.911-10.536,5.315,5.315,0,0,1,3-2.136c.036-.014.078-.021.121-.035l20.924-3.165c4.357-1.185,8.571,1.455,10.643,5.4l3.576,13.147C1027.031,7531.1,1025.8,7536.953,1020.631,7538.357Z" fill="#c2000b"/>
    </g>
    <path id="Path_1305" data-name="Path 1305" d="M706.329,7753.444s-8.562-74.737-16.461-89.308-14.583-43.761-2.43-65.447,16.351-63.417,16.351-63.417c4.715,47.631-9.461,82.989.48,92.352.37.347,1.057.182,2.029-.437Z" fill="#f58e53"/>
    <g id="Group_296" data-name="Group 296">
      <rect id="Rectangle_112" data-name="Rectangle 112" width="147.646" height="53.34" rx="26.67" transform="translate(777.626 7402.104)" fill="#92afd3"/>
    </g>
    <g id="Group_298" data-name="Group 298">
      <rect id="Rectangle_113" data-name="Rectangle 113" width="44.106" height="6.116" rx="3.058" transform="translate(796.632 7412.393)" fill="#6886bd"/>
      <g id="Group_297" data-name="Group 297">
        <path id="Path_1306" data-name="Path 1306" d="M838.744,7434.167H798.625a2,2,0,0,1-1.994-1.994h0a2,2,0,0,1,1.994-1.994h40.119a2,2,0,0,1,1.994,1.994h0A2,2,0,0,1,838.744,7434.167Z" fill="#6886bd"/>
        <path id="Rectangle_114" data-name="Rectangle 114" d="M1.994,0H23.886A1.994,1.994,0,0,1,25.88,1.994v0a1.994,1.994,0,0,1-1.994,1.994H1.993A1.993,1.993,0,0,1,0,1.994v0A1.994,1.994,0,0,1,1.994,0Z" transform="translate(796.631 7439.616)" fill="#6886bd"/>
        <rect id="Rectangle_115" data-name="Rectangle 115" width="40.714" height="3.987" rx="1.994" transform="translate(828.704 7439.616)" fill="#6886bd"/>
        <path id="Path_1307" data-name="Path 1307" d="M901.963,7434.167h-52.6a2,2,0,0,1-1.994-1.994h0a2,2,0,0,1,1.994-1.994h52.6a2,2,0,0,1,1.993,1.994h0A2,2,0,0,1,901.963,7434.167Z" fill="#6886bd"/>
      </g>
      <path id="Rectangle_116" data-name="Rectangle 116" d="M3.058,0H29.3a3.058,3.058,0,0,1,3.058,3.058v0A3.058,3.058,0,0,1,29.3,6.116H3.057A3.057,3.057,0,0,1,0,3.059v0A3.058,3.058,0,0,1,3.058,0Z" transform="translate(846.201 7412.393)" fill="#6886bd"/>
    </g>
    <g id="Group_302" data-name="Group 302">
      <path id="Path_1308" data-name="Path 1308" d="M761.313,7386.691l-2.98,2.138-3-2.115a3.668,3.668,0,0,1,5.976-.023Z" fill="#fff"/>
      <g id="Group_299" data-name="Group 299">
        <path id="Path_1309" data-name="Path 1309" d="M758.332,7379.95a8.851,8.851,0,0,0-7.248,3.77l1.89,1.326a6.553,6.553,0,0,1,10.686-.04l1.884-1.352A8.866,8.866,0,0,0,758.332,7379.95Z" fill="#fff"/>
      </g>
      <g id="Group_300" data-name="Group 300">
        <path id="Path_1310" data-name="Path 1310" d="M758.332,7370.043a18.736,18.736,0,0,0-15.34,7.972l1.9,1.327a16.441,16.441,0,0,1,26.824-.1l1.875-1.352A18.729,18.729,0,0,0,758.332,7370.043Z" fill="#fff"/>
      </g>
      <g id="Group_301" data-name="Group 301">
        <path id="Path_1311" data-name="Path 1311" d="M758.332,7375.466a13.405,13.405,0,0,0-10.937,5.65l1.89,1.327a11.119,11.119,0,0,1,18.049-.07l1.875-1.342A13.4,13.4,0,0,0,758.332,7375.466Z" fill="#fff"/>
      </g>
    </g>
    <path id="Path_1312" data-name="Path 1312" d="M938.618,7427.63a19.177,19.177,0,1,0,19.177-19.178A19.081,19.081,0,0,0,938.618,7427.63Z" fill="#fff"/>
    <path id="Path_1313" data-name="Path 1313" d="M760.65,8090.824c-23.929,4.907-75.505-13.891-75.505-13.891l8.319-80.35-58.282,66.747c-29.659-11.037-76.046-39.839-103.607-57.762,70.626-7.7,123.358-77.4,123.358-77.4,48.959,26.518,104.223,42.01,104.223,42.01C759.139,8017.93,760.65,8090.824,760.65,8090.824Z" fill="#c3d9ea"/>
    <path id="Path_1314" data-name="Path 1314" d="M743.233,8071.92a17.4,17.4,0,0,0-9.376,2.74,25.143,25.143,0,1,0-5.807,23.456,17.5,17.5,0,1,0,15.183-26.2Z" fill="#c3d9ea"/>
    <circle id="Ellipse_18" data-name="Ellipse 18" cx="25.203" cy="25.203" r="25.203" transform="translate(547.139 8001.59)" fill="#c3d9ea"/>
    <path id="Path_1315" data-name="Path 1315" d="M555.157,8000.9c-20.947,5.541-37.164,4.73-49.912,1.568a25.2,25.2,0,0,0,25.2,25.2C545.968,8027.657,555.157,8014.818,555.157,8000.9Z" fill="#c3d9ea"/>
    <circle id="Ellipse_19" data-name="Ellipse 19" cx="25.203" cy="25.203" r="25.203" transform="translate(589.317 8023.701)" fill="#c3d9ea"/>
    <path id="Path_1316" data-name="Path 1316" d="M596.436,8017.843a9.7,9.7,0,1,1,9.611,9.79A9.7,9.7,0,0,1,596.436,8017.843Z" fill="#ffc315"/>
    <g id="Group_303" data-name="Group 303">
      <path id="Path_1317" data-name="Path 1317" d="M957.795,7439.023a11.43,11.43,0,0,1-11.358-11.393,11.108,11.108,0,0,1,.719-3.979l6.643,13.374c.087.176.193.315.4.315a.44.44,0,0,0,.4-.315l3.05-6.854c.035-.07.07-.14.14-.14s.105.07.14.14l3.05,6.854a.442.442,0,0,0,.4.315c.211,0,.316-.139.4-.315l6.643-13.374a11.129,11.129,0,0,1,.718,3.979A11.43,11.43,0,0,1,957.795,7439.023Zm0-13.97c-.07,0-.1-.07-.14-.14l-3.576-8.028a10.964,10.964,0,0,1,7.432,0l-3.576,8.028C957.9,7424.983,957.865,7425.053,957.795,7425.053Zm-3.628,8.238c-.07,0-.1-.07-.14-.14l-5.785-11.656a11.751,11.751,0,0,1,4.084-3.839l4.155,9.255a.293.293,0,0,0,.315.21h2a.293.293,0,0,0,.316-.21l4.154-9.255a11.742,11.742,0,0,1,4.084,3.839l-5.784,11.656c-.035.07-.07.14-.14.14s-.106-.07-.141-.14l-2.173-4.978a.293.293,0,0,0-.316-.21h-2a.293.293,0,0,0-.315.21l-2.174,4.978C954.272,7433.221,954.237,7433.291,954.167,7433.291Zm3.628,6.889a12.551,12.551,0,1,0-12.55-12.55A12.538,12.538,0,0,0,957.795,7440.18Z" fill="#6886bd"/>
    </g>
    <g id="Group_306" data-name="Group 306">
      <path id="Rectangle_117" data-name="Rectangle 117" d="M15.525,0H166.087a15.526,15.526,0,0,1,15.526,15.526V50.279A15.525,15.525,0,0,1,166.088,65.8H15.526A15.526,15.526,0,0,1,0,50.278V15.525A15.525,15.525,0,0,1,15.525,0Z" transform="translate(781.642 7782.713)" fill="#6886bd"/>
    </g>
    <g id="Group_308" data-name="Group 308">
      <rect id="Rectangle_118" data-name="Rectangle 118" width="44.106" height="6.116" rx="3.058" transform="translate(800.649 7795.292)" fill="#3a55a4"/>
      <g id="Group_307" data-name="Group 307">
        <path id="Path_1321" data-name="Path 1321" d="M842.761,7817.067H802.642a2,2,0,0,1-1.994-1.994h0a2,2,0,0,1,1.994-1.994h40.119a2,2,0,0,1,1.994,1.994h0A2,2,0,0,1,842.761,7817.067Z" fill="#3a55a4"/>
        <path id="Rectangle_119" data-name="Rectangle 119" d="M1.993,0H23.886A1.994,1.994,0,0,1,25.88,1.994v0a1.993,1.993,0,0,1-1.993,1.993H1.994A1.994,1.994,0,0,1,0,1.993v0A1.993,1.993,0,0,1,1.993,0Z" transform="translate(800.648 7822.516)" fill="#3a55a4"/>
        <path id="Rectangle_120" data-name="Rectangle 120" d="M1.994,0H68.721a1.994,1.994,0,0,1,1.994,1.994v0a1.994,1.994,0,0,1-1.994,1.994H1.993A1.993,1.993,0,0,1,0,1.994v0A1.994,1.994,0,0,1,1.994,0Z" transform="translate(832.721 7822.516)" fill="#3a55a4"/>
        <path id="Path_1322" data-name="Path 1322" d="M935.98,7817.067h-82.6a2,2,0,0,1-1.994-1.994h0a2,2,0,0,1,1.994-1.994h82.6a2,2,0,0,1,1.993,1.994h0A2,2,0,0,1,935.98,7817.067Z" fill="#3a55a4"/>
        <path id="Path_1323" data-name="Path 1323" d="M842.761,7835.939H802.642a2,2,0,0,1-1.994-1.993h0a2,2,0,0,1,1.994-1.994h40.119a2,2,0,0,1,1.994,1.994h0A2,2,0,0,1,842.761,7835.939Z" fill="#3a55a4"/>
        <path id="Path_1324" data-name="Path 1324" d="M935.98,7835.939h-82.6a2,2,0,0,1-1.994-1.993h0a2,2,0,0,1,1.994-1.994h82.6a2,2,0,0,1,1.993,1.994h0A2,2,0,0,1,935.98,7835.939Z" fill="#3a55a4"/>
      </g>
      <rect id="Rectangle_121" data-name="Rectangle 121" width="62.361" height="6.116" rx="3.058" transform="translate(850.218 7795.292)" fill="#3a55a4"/>
    </g>
    <g id="Group_309" data-name="Group 309">
      <path id="Path_1325" data-name="Path 1325" d="M731.782,7817a19.178,19.178,0,1,0,19.177-19.178A19.081,19.081,0,0,0,731.782,7817Z" fill="#fff"/>
      <path id="Path_1326" data-name="Path 1326" d="M759.268,7826.708a.57.57,0,0,0-.081-.125,1.294,1.294,0,0,0-.262-.27l-.005,0a3.313,3.313,0,0,0-.807-.451l-.035-.013a13.206,13.206,0,0,0-3.291-.825c-.532-.081-.953-.133-1.151-.154-.55-.443-1.289-2.2-1.409-4.894l0,.009s.614-1.427,1.427-.98c1.267.692,3.715-2.109,2.934-5.791a10.138,10.138,0,0,0-.3-1.091,2.263,2.263,0,0,0,.842.206c.735,0,1.847-1.882,2-2.513s-.013-2.707-1.023-3.321c-.983-.606-2.543.09-2.612.116.5-.705,2.222-.563,2.535-.529-4.013-.833-4.842,1.741-4.91,1.972-2.553-2.306-6.449,1.68-7.407,2.746-.065.056-.129.116-.194.18a2.755,2.755,0,0,0-.721.645,3.287,3.287,0,0,0-.662,2.13,7.545,7.545,0,0,0,.507,2.548c.232,2.23.876,4.992,1.908,5.074,0,0,.365,0,.915-.043,0,.026,0,.047,0,.073.017.374.03.795.034,1.216v.253c0,1.122-.064,2.187-.318,2.32-.085.009-.158.013-.223.022-.1,0-.3.03-.3.03-.893.116-1.529.206-1.98.283a2.618,2.618,0,0,0-1.336.43,1.858,1.858,0,0,0-.155.163,10.223,10.223,0,0,0-2.9,3.806,16.393,16.393,0,0,0,20.386.641A21.9,21.9,0,0,0,759.268,7826.708Z" fill="#3a55a4"/>
    </g>
    <g id="Group_310" data-name="Group 310">
      <path id="Rectangle_122" data-name="Rectangle 122" d="M14.347,0H140.563a14.348,14.348,0,0,1,14.348,14.348V70.329a14.348,14.348,0,0,1-14.348,14.348H14.347A14.347,14.347,0,0,1,0,70.33V14.347A14.347,14.347,0,0,1,14.347,0Z" transform="translate(778.096 7677.883)" fill="#92afd3"/>
    </g>
    <g id="Group_313" data-name="Group 313">
      <rect id="Rectangle_123" data-name="Rectangle 123" width="46.402" height="6.434" rx="2.955" transform="translate(797.13 7694.519)" fill="#6886bd"/>
      <g id="Group_311" data-name="Group 311">
        <path id="Path_1327" data-name="Path 1327" d="M841.433,7717.426H799.226a2.1,2.1,0,0,1-2.1-2.1h0a2.1,2.1,0,0,1,2.1-2.1h42.207a2.1,2.1,0,0,1,2.1,2.1h0A2.1,2.1,0,0,1,841.433,7717.426Z" fill="#6886bd"/>
        <rect id="Rectangle_124" data-name="Rectangle 124" width="27.226" height="4.195" rx="1.927" transform="translate(797.129 7723.159)" fill="#6886bd"/>
        <rect id="Rectangle_125" data-name="Rectangle 125" width="42.833" height="4.195" rx="1.927" transform="translate(830.871 7723.159)" fill="#6886bd"/>
        <path id="Path_1328" data-name="Path 1328" d="M907.942,7717.426H852.6a2.1,2.1,0,0,1-2.1-2.1h0a2.1,2.1,0,0,1,2.1-2.1h55.341a2.1,2.1,0,0,1,2.1,2.1h0A2.1,2.1,0,0,1,907.942,7717.426Z" fill="#6886bd"/>
        <path id="Path_1329" data-name="Path 1329" d="M841.433,7737.281H799.226a2.1,2.1,0,0,1-2.1-2.1h0a2.1,2.1,0,0,1,2.1-2.1h42.207a2.1,2.1,0,0,1,2.1,2.1h0A2.1,2.1,0,0,1,841.433,7737.281Z" fill="#6886bd"/>
        <path id="Path_1330" data-name="Path 1330" d="M907.942,7737.281H852.6a2.1,2.1,0,0,1-2.1-2.1h0a2.1,2.1,0,0,1,2.1-2.1h55.341a2.1,2.1,0,0,1,2.1,2.1h0A2.1,2.1,0,0,1,907.942,7737.281Z" fill="#6886bd"/>
      </g>
      <g id="Group_312" data-name="Group 312">
        <path id="Path_1331" data-name="Path 1331" d="M841.433,7747.615H799.226a2.1,2.1,0,0,1-2.1-2.1h0a2.1,2.1,0,0,1,2.1-2.1h42.207a2.1,2.1,0,0,1,2.1,2.1h0A2.1,2.1,0,0,1,841.433,7747.615Z" fill="#6886bd"/>
        <path id="Path_1332" data-name="Path 1332" d="M907.942,7747.615H852.6a2.1,2.1,0,0,1-2.1-2.1h0a2.1,2.1,0,0,1,2.1-2.1h55.341a2.1,2.1,0,0,1,2.1,2.1h0A2.1,2.1,0,0,1,907.942,7747.615Z" fill="#6886bd"/>
      </g>
      <path id="Rectangle_126" data-name="Rectangle 126" d="M2.956,0H31.09a2.955,2.955,0,0,1,2.955,2.955v.524A2.955,2.955,0,0,1,31.09,6.434H2.955A2.955,2.955,0,0,1,0,3.479V2.956A2.956,2.956,0,0,1,2.956,0Z" transform="translate(849.279 7694.519)" fill="#6886bd"/>
    </g>
    <path id="Path_1333" data-name="Path 1333" d="M730.381,7719.559a18.3,18.3,0,0,0,28.794,15c.152-.1.3-.211.444-.319a18.3,18.3,0,1,0-29.238-14.682Z" fill="#fff"/>
    <path id="Path_1334" data-name="Path 1334" d="M752.7,7729.89l-1.419-1.256c-.118.024-.235.045-.353.065a9.482,9.482,0,0,0-.829-.516c.093-.573.17-1.106.235-1.577a25.232,25.232,0,0,0,.24-2.8c.752-.036,1.26-.117,1.26-.117,1.422-.329,1.492-5.186,1.163-7.718a1.818,1.818,0,0,0,.792-.151c1.077-.475,1.138-2.1,1.138-2.1a1.906,1.906,0,0,1-.772.768s1.8-2.467-.289-4.153-4.206-.585-5.417-.512c-2.658.162-4.377.321-5.243,2.068-.858,1.724-.52,6.462,1.122,8.206.028.163.056.321.077.484a3.249,3.249,0,0,0,.65,1.548,10.867,10.867,0,0,1-1.967,4.576,7.152,7.152,0,0,0-1.414,1.524l-.029.021.012,0a15.424,15.424,0,0,0-1.987,4.361c0,.008,0,.016-.008.024a14.543,14.543,0,0,0,2.808,1.544c.065.029.13.053.2.082.017,0,.029.012.045.016.106.045.215.085.321.126.26.1.52.2.784.28s.557.171.838.244c.13.033.26.065.39.094.114.028.227.052.345.073l.049.012c.077.016.155.028.232.045.178.032.361.065.544.093.041,0,.086.012.126.016.1.017.2.029.3.041l.427.049c.158.016.321.028.483.036s.3.021.46.025.321.008.483.008.346,0,.52-.008a.153.153,0,0,0,.045,0c.041,0,.085,0,.126,0a2.481,2.481,0,0,0,.256-.013.086.086,0,0,1,.033,0c.162-.008.321-.02.483-.036a15.3,15.3,0,0,0,5.8-1.756A16.185,16.185,0,0,0,752.7,7729.89Z" fill="#6886bd"/>
  </g>
</svg>
