<svg xmlns="http://www.w3.org/2000/svg" width="402.616" height="548.605" viewBox="0 0 402.616 548.605">
  <g id="Group_387" data-name="Group 387" transform="translate(-1055.247 -5271.793)">
    <path id="Path_2040" data-name="Path 2040" d="M1435.054,5820.4H1203.818c-11.088-7.433-68.673-46.713-92.5-76-5.046-6.207-23.517-59.686-37.711-103.107-8.861-27.122-16.059-50.333-17.275-55.656a69.323,69.323,0,0,1-.875-10.5v-.051c-.6-17.758.221-52,1.071-79.2l.005-.126.015-.357c.04-1.2.075-2.372.116-3.538v-.04c.005-.116.005-.236.01-.352.156-4.725.306-9.177.447-13.229.357-10.122.658-17.737.784-20.718l.05-1.387a.016.016,0,0,0,.01,0c.367-.206,11.49-6.142,26.358,4.568,3.589,2.589,6.906,8.842,9.931,17,1.936,5.208,3.75,11.188,5.439,17.491,6.494,24.242,11.153,53.223,13.641,60.983,4.011,12.541,51.287,67.688,54.243,71.116.045.061.095.116.14.171v-87.089l-35.691-95.5-14.651-39.2-7.363-19.7a355.281,355.281,0,0,1-20.769-40.848,192.859,192.859,0,0,1-10.3-30.2c-.563-2.372-1.041-4.719-1.423-7.016v-.01c-1.392-8.419-1.488-16.23.448-22.588,3.453-11.324,11.233-13.455,17.209-13.224.618.02,1.217.075,1.795.141a12.3,12.3,0,0,1,1.718.331,12,12,0,0,1,2.971,1.237c.01,0,.01,0,.015.01a12.042,12.042,0,0,1,3.88,3.629s5.047,6.589,11.817,15.445c4.453,5.831,9.656,12.641,14.651,19.206,8.9,11.7,17.16,22.607,19.432,25.8,12.279,17.285,45.341,73.614,45.341,73.614l38.7,1.623a25.675,25.675,0,0,1,16.451,6.886c13.762,12.853,43.431,40.663,47.07,44.8,0,1.356,23.058,12.443,40.869,22.317,12.74,5.383,36.942,24.462,36.942,24.462,5.016,4.428,8.836,8.836,10.771,13.048,8.3,18.059,30.806,175.123,41.567,252.768C1432.631,5802.355,1434.878,5819.108,1435.054,5820.4Z" fill="#fc9e61"/>
    <path id="Path_2041" data-name="Path 2041" d="M1196.8,5411.49s35.853,58.525,40.6,61.161,23.2,6.327,25.309,0S1196.8,5411.49,1196.8,5411.49Z" fill="#f58e53"/>
    <path id="Path_2042" data-name="Path 2042" d="M1377.011,5511.741l-.181-.162s-24.2-19.079-36.942-24.462c-16.353-9.066-37.125-19.153-40.418-21.793,3.8,4.34,30.5,34.558,40.773,36.822C1349.266,5504.135,1369.76,5509.74,1377.011,5511.741Z" fill="#f58e53"/>
    <path id="Path_2043" data-name="Path 2043" d="M1167.714,5627.459v-87.092s20.69,34.609,22.271,53.59S1181.391,5643.662,1167.714,5627.459Z" fill="#f58e53"/>
    <path id="Path_2044" data-name="Path 2044" d="M1092.648,5307.873c-3.027-5.187-8.443-14.593-10.306-19.855-.527-1.487-.46-4.464,1.369-7.635a17.217,17.217,0,0,1,5.428-5.635,17.964,17.964,0,0,1,3.81-2.054,14.768,14.768,0,0,1,4.877-.9,5.173,5.173,0,0,1,4.164,2.421c.007.005.01.017.016.022a151.482,151.482,0,0,1,11.223,18.8c2.141,4.454,1.465,9.6-1.653,11.855l-1.454,1.065-7.45,5.439C1099.575,5313.651,1095.112,5312.113,1092.648,5307.873Z" fill="#fdc69f"/>
    <path id="Path_2045" data-name="Path 2045" d="M1092.648,5307.873c-3.027-5.187-8.443-14.593-10.306-19.855-.527-1.487-.46-4.464,1.369-7.635.486-.4,1.009-.792,1.575-1.175a18.006,18.006,0,0,1,3.809-2.055,14.8,14.8,0,0,1,4.877-.9,5.173,5.173,0,0,1,4.165,2.421c.007.005.01.017.016.022a151.71,151.71,0,0,1,11.223,18.8,11.449,11.449,0,0,1,.746,8.46l-7.45,5.439C1099.575,5313.651,1095.112,5312.113,1092.648,5307.873Z" fill="#fcaf7b"/>
    <path id="Path_2046" data-name="Path 2046" d="M1318.878,5784.638,1249.8,5820.4h-45.985c-11.088-7.433-68.673-46.713-92.5-76-5.046-6.207-23.517-59.686-37.711-103.107v-.021c1.885,5.765,41.5,90.13,52.775,99.72s70.5,65.421,86.853,64.853c15.842-.542,100.183-19.954,105.41-21.155C1318.722,5784.678,1318.8,5784.658,1318.878,5784.638Z" fill="#f58e53"/>
    <path id="Path_2047" data-name="Path 2047" d="M1457.863,5820.4H1208.834c12.49-4.9,60.274-23.155,109.808-35.706.08-.015.155-.035.236-.055,42.542-10.761,86.335-17.285,110.119-7.5l.171.256Z" fill="#cbdbeb"/>
    <path id="Path_2048" data-name="Path 2048" d="M1056.668,5491.467a.018.018,0,0,0,.016-.006c4.2-1.539,10.09-2.554,12.955,2.234,4.461,7.45-12.114,73.17-14.184,81.438Z" fill="#f58e53"/>
    <path id="Path_2049" data-name="Path 2049" d="M1057.954,5456.131l-1.425,39.751s8.358,1.361,13.111-2.187S1071.876,5455.664,1057.954,5456.131Z" fill="#fcaf7b"/>
  </g>
</svg>
