<svg xmlns="http://www.w3.org/2000/svg" width="96.996" height="96.996" viewBox="0 0 96.996 96.996">
  <g id="Group_452" data-name="Group 452" transform="translate(-1020.023 -2830.327)">
    <path id="Path_2802" data-name="Path 2802" d="M1020.023,2878.825a48.5,48.5,0,1,0,48.5-48.5A48.259,48.259,0,0,0,1020.023,2878.825Z" fill="#fff"/>
    <path id="Path_2803" data-name="Path 2803" d="M1068.521,2907.029a28.3,28.3,0,0,1-28.117-28.2,27.529,27.529,0,0,1,1.78-9.849l16.444,33.106c.217.437.477.781,1,.781a1.092,1.092,0,0,0,1-.781l7.55-16.965c.087-.174.173-.348.347-.348s.26.174.347.348l7.55,16.965a1.091,1.091,0,0,0,1,.781c.52,0,.781-.346,1-.781l16.445-33.106a27.549,27.549,0,0,1,1.778,9.849A28.3,28.3,0,0,1,1068.521,2907.029Zm0-34.582c-.174,0-.26-.174-.347-.347l-8.852-19.873a27.162,27.162,0,0,1,18.4,0l-8.851,19.873C1068.781,2872.273,1068.695,2872.447,1068.521,2872.447Zm-8.982,20.393c-.173,0-.26-.174-.347-.347l-14.319-28.854a29.076,29.076,0,0,1,10.11-9.5l10.284,22.91a.724.724,0,0,0,.781.521h4.946a.725.725,0,0,0,.781-.521l10.284-22.91a29.076,29.076,0,0,1,10.11,9.5l-14.319,28.854c-.087.173-.174.347-.347.347s-.261-.174-.347-.347l-5.381-12.323a.724.724,0,0,0-.781-.52h-4.946a.724.724,0,0,0-.781.52l-5.381,12.323C1059.8,2892.666,1059.713,2892.84,1059.539,2892.84Zm8.982,17.052a31.067,31.067,0,1,0-31.067-31.067A31.036,31.036,0,0,0,1068.521,2909.892Z" fill="#39acce"/>
  </g>
</svg>
